<svg width="46" height="22" viewBox="0 0 46 22" fill="none" xmlns="http://www.w3.org/2000/svg">
<path d="M7.30114 1.54545H4.7358L0.380682 4.39204V6.91477L4.55682 4.1875H4.65909V19H7.30114V1.54545Z" fill="#494949"/>
<path d="M25.0561 0.727272H22.7805L17.1555 21.625H19.4311L25.0561 0.727272ZM39.6151 19.2386C43.1776 19.2386 45.794 17.108 45.7855 14.2102C45.794 12.0028 44.456 10.4176 42.1378 10.0597V9.9233C43.9616 9.45455 45.1463 8.02273 45.1378 6.0625C45.1463 3.49716 43.0412 1.30682 39.6832 1.30682C36.4787 1.30682 33.9048 3.24148 33.8196 6.07954H36.3679C36.4276 4.47727 37.9361 3.50568 39.6491 3.50568C41.4304 3.50568 42.598 4.58807 42.5895 6.19886C42.598 7.88636 41.2429 8.99432 39.3082 8.99432H37.8338V11.142H39.3082C41.7287 11.142 43.1264 12.3693 43.1264 14.125C43.1264 15.821 41.652 16.9716 39.598 16.9716C37.706 16.9716 36.2315 16 36.1293 14.4489H33.4531C33.5639 17.2955 36.0866 19.2386 39.6151 19.2386Z" fill="#CFCFCF"/>
</svg>
