<svg width="50" height="22" viewBox="0 0 50 22" fill="none" xmlns="http://www.w3.org/2000/svg">
<path d="M0.678977 19H12.1676V16.7415H4.30966V16.6136L7.77841 12.983C10.9744 9.75284 11.8864 8.21023 11.8864 6.25852C11.8864 3.45454 9.60227 1.30682 6.3125 1.30682C3.0483 1.30682 0.661932 3.42045 0.661932 6.60795H3.17614C3.16761 4.73295 4.37784 3.50568 6.26136 3.50568C8.03409 3.50568 9.38068 4.59659 9.38068 6.33523C9.38068 7.87784 8.46023 8.9858 6.58523 10.9716L0.678977 17.0909V19Z" fill="#494949"/>
<path d="M28.4311 0.727272H26.1555L20.5305 21.625H22.8061L28.4311 0.727272ZM42.9901 19.2386C46.5526 19.2386 49.169 17.108 49.1605 14.2102C49.169 12.0028 47.831 10.4176 45.5128 10.0597V9.9233C47.3366 9.45455 48.5213 8.02273 48.5128 6.0625C48.5213 3.49716 46.4162 1.30682 43.0582 1.30682C39.8537 1.30682 37.2798 3.24148 37.1946 6.07954H39.7429C39.8026 4.47727 41.3111 3.50568 43.0241 3.50568C44.8054 3.50568 45.973 4.58807 45.9645 6.19886C45.973 7.88636 44.6179 8.99432 42.6832 8.99432H41.2088V11.142H42.6832C45.1037 11.142 46.5014 12.3693 46.5014 14.125C46.5014 15.821 45.027 16.9716 42.973 16.9716C41.081 16.9716 39.6065 16 39.5043 14.4489H36.8281C36.9389 17.2955 39.4616 19.2386 42.9901 19.2386Z" fill="#CFCFCF"/>
</svg>
