<svg width="50" height="22" viewBox="0 0 50 22" fill="none" xmlns="http://www.w3.org/2000/svg">
<path d="M6.75568 19.2386C10.3182 19.2386 12.9347 17.108 12.9261 14.2102C12.9347 12.0028 11.5966 10.4176 9.27841 10.0597V9.9233C11.1023 9.45455 12.2869 8.02273 12.2784 6.0625C12.2869 3.49716 10.1818 1.30682 6.82386 1.30682C3.61932 1.30682 1.04545 3.24148 0.960227 6.07954H3.50852C3.56818 4.47727 5.0767 3.50568 6.78977 3.50568C8.57102 3.50568 9.73864 4.58807 9.73011 6.19886C9.73864 7.88636 8.38352 8.99432 6.44886 8.99432H4.97443V11.142H6.44886C8.86932 11.142 10.267 12.3693 10.267 14.125C10.267 15.821 8.79261 16.9716 6.73864 16.9716C4.84659 16.9716 3.37216 16 3.26989 14.4489H0.59375C0.704545 17.2955 3.22727 19.2386 6.75568 19.2386Z" fill="#494949"/>
<path d="M29.1811 0.727272H26.9055L21.2805 21.625H23.5561L29.1811 0.727272ZM43.7401 19.2386C47.3026 19.2386 49.919 17.108 49.9105 14.2102C49.919 12.0028 48.581 10.4176 46.2628 10.0597V9.9233C48.0866 9.45455 49.2713 8.02273 49.2628 6.0625C49.2713 3.49716 47.1662 1.30682 43.8082 1.30682C40.6037 1.30682 38.0298 3.24148 37.9446 6.07954H40.4929C40.5526 4.47727 42.0611 3.50568 43.7741 3.50568C45.5554 3.50568 46.723 4.58807 46.7145 6.19886C46.723 7.88636 45.3679 8.99432 43.4332 8.99432H41.9588V11.142H43.4332C45.8537 11.142 47.2514 12.3693 47.2514 14.125C47.2514 15.821 45.777 16.9716 43.723 16.9716C41.831 16.9716 40.3565 16 40.2543 14.4489H37.5781C37.6889 17.2955 40.2116 19.2386 43.7401 19.2386Z" fill="#CFCFCF"/>
</svg>
