<svg width="86" height="85" viewBox="0 0 86 85" fill="none" xmlns="http://www.w3.org/2000/svg">
<path d="M1.79794 70.1193H2.45419C3.88601 70.1193 4.46129 69.2585 4.90021 68.2869L7.90874 61.2727H6.02521L4.30788 65.5682L2.25391 61.2727H0.344815L3.51527 67.554L3.40874 67.8395C3.22976 68.3551 2.97408 68.6193 2.27095 68.6193H1.79794V70.1193ZM14.6982 61.2727H8.90696V70H10.7521V62.794H14.6982V61.2727ZM23.5128 65.6364C23.5128 62.7812 21.7401 61.1534 19.4261 61.1534C17.0994 61.1534 15.3395 62.7812 15.3395 65.6364C15.3395 68.4787 17.0994 70.1193 19.4261 70.1193C21.7401 70.1193 23.5128 68.4915 23.5128 65.6364ZM21.642 65.6364C21.642 67.4858 20.7642 68.4872 19.4261 68.4872C18.0838 68.4872 17.2102 67.4858 17.2102 65.6364C17.2102 63.7869 18.0838 62.7855 19.4261 62.7855C20.7642 62.7855 21.642 63.7869 21.642 65.6364ZM24.4066 70H24.8839C26.9847 70 27.641 68.7173 27.7773 65.7898L27.9137 62.7514H30.3299V70H32.1239V61.2727H26.2006L26.0558 65.1548C25.9705 67.5881 25.6126 68.4148 24.6538 68.4957L24.4066 68.517V70ZM44.4425 65.6364C44.4425 62.7812 42.6697 61.1534 40.3558 61.1534C38.0291 61.1534 36.2692 62.7812 36.2692 65.6364C36.2692 68.4787 38.0291 70.1193 40.3558 70.1193C42.6697 70.1193 44.4425 68.4915 44.4425 65.6364ZM42.5717 65.6364C42.5717 67.4858 41.6939 68.4872 40.3558 68.4872C39.0135 68.4872 38.1399 67.4858 38.1399 65.6364C38.1399 63.7869 39.0135 62.7855 40.3558 62.7855C41.6939 62.7855 42.5717 63.7869 42.5717 65.6364ZM45.8093 70H49.0735C51.1445 70 52.4315 68.8622 52.4315 67.2131C52.4315 65.5597 51.1445 64.4986 49.0735 64.4986H47.6545V62.794H51.6005V61.2727H45.8093V70ZM47.6545 68.517V65.956H49.0735C50.0621 65.956 50.6033 66.5014 50.6033 67.196C50.6033 67.9119 50.0621 68.517 49.0735 68.517H47.6545ZM56.8004 70.1193C58.7607 70.1193 60.1626 69.0412 60.1584 67.5497C60.1626 66.4631 59.4723 65.6875 58.1896 65.5256V65.4574C59.1655 65.2827 59.8388 64.5923 59.8345 63.6122C59.8388 62.2358 58.6328 61.1534 56.826 61.1534C55.0362 61.1534 53.6896 62.2017 53.6641 63.7102H55.4325C55.4538 63.0455 56.0632 62.6151 56.8175 62.6151C57.5632 62.6151 58.0618 63.0668 58.0575 63.723C58.0618 64.4091 57.478 64.8736 56.6385 64.8736H55.8246V66.2287H56.6385C57.6271 66.2287 58.245 66.723 58.2408 67.4261C58.245 68.1207 57.6484 68.598 56.8047 68.598C55.9908 68.598 55.3814 68.1719 55.3473 67.5327H53.4893C53.5192 69.0582 54.8828 70.1193 56.8004 70.1193ZM69.5558 65.6364C69.5558 62.7812 67.783 61.1534 65.4691 61.1534C63.1424 61.1534 61.3825 62.7812 61.3825 65.6364C61.3825 68.4787 63.1424 70.1193 65.4691 70.1193C67.783 70.1193 69.5558 68.4915 69.5558 65.6364ZM67.685 65.6364C67.685 67.4858 66.8072 68.4872 65.4691 68.4872C64.1268 68.4872 63.2532 67.4858 63.2532 65.6364C63.2532 63.7869 64.1268 62.7855 65.4691 62.7855C66.8072 62.7855 67.685 63.7869 67.685 65.6364ZM70.9226 70H72.7678V67.1705H74.3189C76.326 67.1705 77.4936 65.973 77.4936 64.2301C77.4936 62.4957 76.3473 61.2727 74.3658 61.2727H70.9226V70ZM72.7678 65.6918V62.7812H74.0121C75.0774 62.7812 75.593 63.3608 75.593 64.2301C75.593 65.0952 75.0774 65.6918 74.0206 65.6918H72.7678ZM79.1886 70L79.8363 68.0099H82.9854L83.6332 70H85.6104L82.6019 61.2727H80.2241L77.2113 70H79.1886ZM80.305 66.5696L81.3789 63.267H81.4471L82.521 66.5696H80.305ZM33.6 74.2727H31.8656L29.7051 75.6406V77.277L31.7037 76.0241H31.7548V83H33.6V74.2727ZM35.5421 81.4659H39.731V83H41.4952V81.4659H42.5776V79.9872H41.4952V74.2727H39.1855L35.5421 80.0128V81.4659ZM39.7651 79.9872H37.4V79.919L39.6969 76.2841H39.7651V79.9872ZM47.2289 83.1918C49.4235 83.1918 50.7488 81.5213 50.753 78.6449C50.7573 75.7898 49.415 74.1534 47.2289 74.1534C45.0385 74.1534 43.709 75.7855 43.7047 78.6449C43.6962 81.5128 45.03 83.1875 47.2289 83.1918ZM47.2289 81.6619C46.2275 81.6619 45.5797 80.6562 45.584 78.6449C45.5882 76.6634 46.2317 75.6662 47.2289 75.6662C48.2218 75.6662 48.8695 76.6634 48.8695 78.6449C48.8738 80.6562 48.226 81.6619 47.2289 81.6619ZM54.1355 78.7599C55.6142 78.7599 56.5218 77.7628 56.5218 76.0284C56.5218 74.3026 55.6142 73.3352 54.1355 73.3352C52.6483 73.3352 51.7491 74.3111 51.7491 76.0284C51.7491 77.7457 52.6397 78.7599 54.1355 78.7599ZM54.1355 77.6648C53.492 77.6648 53.0872 77.1364 53.0872 76.0284C53.0872 74.9247 53.5091 74.4006 54.1355 74.4006C54.7747 74.4006 55.188 74.9247 55.188 76.0284C55.188 77.1449 54.7747 77.6648 54.1355 77.6648Z" fill="#444444"/>
<path d="M53.8846 6.74985C53.8846 7.08488 53.9429 7.33818 54.0594 7.50973C54.1781 7.68128 54.3701 7.76706 54.6356 7.76706C54.8988 7.76706 55.0876 7.68229 55.202 7.51276C55.3185 7.3412 55.3768 7.0869 55.3768 6.74985C55.3768 6.41481 55.3185 6.16354 55.202 5.99602C55.0855 5.8285 54.8945 5.74474 54.6291 5.74474C54.3658 5.74474 54.1759 5.8285 54.0594 5.99602C53.9429 6.16152 53.8846 6.4128 53.8846 6.74985ZM56.3867 6.74985C56.3867 7.30084 56.2313 7.73174 55.9206 8.04256C55.6099 8.35337 55.1772 8.50878 54.6226 8.50878C54.2752 8.50878 53.9688 8.43814 53.7033 8.29686C53.4379 8.15356 53.234 7.94871 53.0916 7.68229C52.9491 7.41588 52.8779 7.10506 52.8779 6.74985C52.8779 6.19684 53.0322 5.76695 53.3408 5.46017C53.6494 5.15339 54.0831 5 54.642 5C54.9895 5 55.2959 5.07064 55.5613 5.21192C55.8267 5.3532 56.0307 5.55604 56.1731 5.82043C56.3155 6.08482 56.3867 6.39463 56.3867 6.74985Z" fill="#131313"/>
<path d="M22 27.0527L43.4421 45.298L65.5088 27.0527" stroke="#131313" stroke-width="3" stroke-linecap="round" stroke-linejoin="round"/>
<path fill-rule="evenodd" clip-rule="evenodd" d="M25.4033 30.2711L43.7532 46L61.7863 30.8526C57.9286 24.7724 51.1375 20.7368 43.4038 20.7368C35.9193 20.7368 29.3176 24.5164 25.4033 30.2711Z" fill="#131313"/>
<path d="M36.589 8.11915H35.1193L33 9.51064V10.9574L34.9944 9.65532H35.0443V16.834H36.589V8.11915Z" fill="black"/>
<path d="M38.6001 15.217H42.668V16.834H44.1419V15.217H45.2327V13.9191H44.1419V8.11915H42.2183L38.6001 13.9617V15.217ZM42.6846 13.9191H40.1823V13.8511L42.618 9.90638H42.6846V13.9191Z" fill="black"/>
<path d="M49.7149 17C51.7717 17.0042 53 15.3447 53 12.4851C53 9.64255 51.7634 8 49.7149 8C47.6664 8 46.434 9.6383 46.4298 12.4851C46.4298 15.3404 47.6581 17 49.7149 17ZM49.7149 15.6681C48.6532 15.6681 47.987 14.5787 47.9912 12.4851C47.9953 10.4085 48.6573 9.31489 49.7149 9.31489C50.7766 9.31489 51.4386 10.4085 51.4428 12.4851C51.4428 14.5787 50.7808 15.6681 49.7149 15.6681Z" fill="black"/>
</svg>
