<svg width="86" height="85" viewBox="0 0 86 85" fill="none" xmlns="http://www.w3.org/2000/svg">
<path d="M1.79794 70.1193H2.45419C3.88601 70.1193 4.46129 69.2585 4.90021 68.2869L7.90874 61.2727H6.02521L4.30788 65.5682L2.25391 61.2727H0.344815L3.51527 67.554L3.40874 67.8395C3.22976 68.3551 2.97408 68.6193 2.27095 68.6193H1.79794V70.1193ZM14.6982 61.2727H8.90696V70H10.7521V62.794H14.6982V61.2727ZM23.5128 65.6364C23.5128 62.7812 21.7401 61.1534 19.4261 61.1534C17.0994 61.1534 15.3395 62.7812 15.3395 65.6364C15.3395 68.4787 17.0994 70.1193 19.4261 70.1193C21.7401 70.1193 23.5128 68.4915 23.5128 65.6364ZM21.642 65.6364C21.642 67.4858 20.7642 68.4872 19.4261 68.4872C18.0838 68.4872 17.2102 67.4858 17.2102 65.6364C17.2102 63.7869 18.0838 62.7855 19.4261 62.7855C20.7642 62.7855 21.642 63.7869 21.642 65.6364ZM24.4066 70H24.8839C26.9847 70 27.641 68.7173 27.7773 65.7898L27.9137 62.7514H30.3299V70H32.1239V61.2727H26.2006L26.0558 65.1548C25.9705 67.5881 25.6126 68.4148 24.6538 68.4957L24.4066 68.517V70ZM44.4425 65.6364C44.4425 62.7812 42.6697 61.1534 40.3558 61.1534C38.0291 61.1534 36.2692 62.7812 36.2692 65.6364C36.2692 68.4787 38.0291 70.1193 40.3558 70.1193C42.6697 70.1193 44.4425 68.4915 44.4425 65.6364ZM42.5717 65.6364C42.5717 67.4858 41.6939 68.4872 40.3558 68.4872C39.0135 68.4872 38.1399 67.4858 38.1399 65.6364C38.1399 63.7869 39.0135 62.7855 40.3558 62.7855C41.6939 62.7855 42.5717 63.7869 42.5717 65.6364ZM45.8093 70H49.0735C51.1445 70 52.4315 68.8622 52.4315 67.2131C52.4315 65.5597 51.1445 64.4986 49.0735 64.4986H47.6545V62.794H51.6005V61.2727H45.8093V70ZM47.6545 68.517V65.956H49.0735C50.0621 65.956 50.6033 66.5014 50.6033 67.196C50.6033 67.9119 50.0621 68.517 49.0735 68.517H47.6545ZM56.8004 70.1193C58.7607 70.1193 60.1626 69.0412 60.1584 67.5497C60.1626 66.4631 59.4723 65.6875 58.1896 65.5256V65.4574C59.1655 65.2827 59.8388 64.5923 59.8345 63.6122C59.8388 62.2358 58.6328 61.1534 56.826 61.1534C55.0362 61.1534 53.6896 62.2017 53.6641 63.7102H55.4325C55.4538 63.0455 56.0632 62.6151 56.8175 62.6151C57.5632 62.6151 58.0618 63.0668 58.0575 63.723C58.0618 64.4091 57.478 64.8736 56.6385 64.8736H55.8246V66.2287H56.6385C57.6271 66.2287 58.245 66.723 58.2408 67.4261C58.245 68.1207 57.6484 68.598 56.8047 68.598C55.9908 68.598 55.3814 68.1719 55.3473 67.5327H53.4893C53.5192 69.0582 54.8828 70.1193 56.8004 70.1193ZM69.5558 65.6364C69.5558 62.7812 67.783 61.1534 65.4691 61.1534C63.1424 61.1534 61.3825 62.7812 61.3825 65.6364C61.3825 68.4787 63.1424 70.1193 65.4691 70.1193C67.783 70.1193 69.5558 68.4915 69.5558 65.6364ZM67.685 65.6364C67.685 67.4858 66.8072 68.4872 65.4691 68.4872C64.1268 68.4872 63.2532 67.4858 63.2532 65.6364C63.2532 63.7869 64.1268 62.7855 65.4691 62.7855C66.8072 62.7855 67.685 63.7869 67.685 65.6364ZM70.9226 70H72.7678V67.1705H74.3189C76.326 67.1705 77.4936 65.973 77.4936 64.2301C77.4936 62.4957 76.3473 61.2727 74.3658 61.2727H70.9226V70ZM72.7678 65.6918V62.7812H74.0121C75.0774 62.7812 75.593 63.3608 75.593 64.2301C75.593 65.0952 75.0774 65.6918 74.0206 65.6918H72.7678ZM79.1886 70L79.8363 68.0099H82.9854L83.6332 70H85.6104L82.6019 61.2727H80.2241L77.2113 70H79.1886ZM80.305 66.5696L81.3789 63.267H81.4471L82.521 66.5696H80.305ZM32.1149 83.1193C34.0751 83.1193 35.4771 82.0412 35.4728 80.5497C35.4771 79.4631 34.7868 78.6875 33.5041 78.5256V78.4574C34.4799 78.2827 35.1532 77.5923 35.149 76.6122C35.1532 75.2358 33.9473 74.1534 32.1404 74.1534C30.3507 74.1534 29.0041 75.2017 28.9785 76.7102H30.747C30.7683 76.0455 31.3777 75.6151 32.1319 75.6151C32.8777 75.6151 33.3762 76.0668 33.372 76.723C33.3762 77.4091 32.7924 77.8736 31.9529 77.8736H31.139V79.2287H31.9529C32.9416 79.2287 33.5595 79.723 33.5552 80.4261C33.5595 81.1207 32.9629 81.598 32.1191 81.598C31.3052 81.598 30.6958 81.1719 30.6618 80.5327H28.8038C28.8336 82.0582 30.1973 83.1193 32.1149 83.1193ZM40.1486 83.1193C42.0918 83.1278 43.4171 81.8537 43.4128 80.0767C43.4171 78.4403 42.275 77.2599 40.7282 77.2599C39.7694 77.2599 38.9213 77.7202 38.5293 78.4915H38.4696C38.4782 76.7912 39.0748 75.7344 40.2125 75.7344C40.8816 75.7344 41.3631 76.1009 41.5037 76.7102H43.3233C43.1486 75.2741 41.9554 74.1534 40.2125 74.1534C38.0563 74.1534 36.6713 75.9006 36.6628 78.8324C36.6586 82.0284 38.3546 83.1108 40.1486 83.1193ZM40.1401 81.6705C39.2878 81.6705 38.6571 80.9844 38.6571 80.1321C38.6614 79.2841 39.3049 78.5938 40.1529 78.5938C41.0051 78.5938 41.6273 79.2628 41.623 80.1278C41.6273 81.0014 40.9924 81.6705 40.1401 81.6705ZM48.1429 83.1918C50.3375 83.1918 51.6628 81.5213 51.6671 78.6449C51.6713 75.7898 50.329 74.1534 48.1429 74.1534C45.9526 74.1534 44.623 75.7855 44.6188 78.6449C44.6103 81.5128 45.9441 83.1875 48.1429 83.1918ZM48.1429 81.6619C47.1415 81.6619 46.4938 80.6562 46.498 78.6449C46.5023 76.6634 47.1458 75.6662 48.1429 75.6662C49.1358 75.6662 49.7836 76.6634 49.7836 78.6449C49.7878 80.6562 49.1401 81.6619 48.1429 81.6619ZM55.0495 78.7599C56.5282 78.7599 57.4359 77.7628 57.4359 76.0284C57.4359 74.3026 56.5282 73.3352 55.0495 73.3352C53.5623 73.3352 52.6632 74.3111 52.6632 76.0284C52.6632 77.7457 53.5538 78.7599 55.0495 78.7599ZM55.0495 77.6648C54.4061 77.6648 54.0012 77.1364 54.0012 76.0284C54.0012 74.9247 54.4231 74.4006 55.0495 74.4006C55.6887 74.4006 56.1021 74.9247 56.1021 76.0284C56.1021 77.1449 55.6887 77.6648 55.0495 77.6648Z" fill="#444444"/>
<circle cx="43.5" cy="24.5" r="17.5" fill="black" stroke="#131313" stroke-width="4"/>
<path d="M52.8846 18.7498C52.8846 19.0849 52.9429 19.3382 53.0594 19.5097C53.1781 19.6813 53.3701 19.7671 53.6356 19.7671C53.8988 19.7671 54.0876 19.6823 54.202 19.5128C54.3185 19.3412 54.3768 19.0869 54.3768 18.7498C54.3768 18.4148 54.3185 18.1635 54.202 17.996C54.0855 17.8285 53.8945 17.7447 53.6291 17.7447C53.3658 17.7447 53.1759 17.8285 53.0594 17.996C52.9429 18.1615 52.8846 18.4128 52.8846 18.7498ZM55.3867 18.7498C55.3867 19.3008 55.2313 19.7317 54.9206 20.0426C54.6099 20.3534 54.1772 20.5088 53.6226 20.5088C53.2752 20.5088 52.9688 20.4381 52.7033 20.2969C52.4379 20.1536 52.234 19.9487 52.0916 19.6823C51.9491 19.4159 51.8779 19.1051 51.8779 18.7498C51.8779 18.1968 52.0322 17.7669 52.3408 17.4602C52.6494 17.1534 53.0831 17 53.642 17C53.9895 17 54.2959 17.0706 54.5613 17.2119C54.8267 17.3532 55.0307 17.556 55.1731 17.8204C55.3155 18.0848 55.3867 18.3946 55.3867 18.7498Z" fill="white"/>
<path d="M35.8762 28.9584C37.5536 28.9584 38.7753 28.009 38.7715 26.7002C38.7753 25.7319 38.1625 25.0359 37.0634 24.8808V24.8203C37.9136 24.6388 38.4842 24.0147 38.4804 23.1447C38.4842 21.9645 37.4655 21 35.8991 21C34.3749 21 33.1953 21.8965 33.1647 23.1939H34.5319C34.5549 22.5433 35.1676 22.1385 35.8915 22.1385C36.623 22.1385 37.1093 22.5773 37.1055 23.2279C37.1093 23.905 36.5425 24.3551 35.7306 24.3551H35.0374V25.4369H35.7306C36.7225 25.4369 37.3123 25.9286 37.3085 26.6284C37.3123 27.313 36.711 27.782 35.8723 27.782C35.0834 27.782 34.4745 27.3773 34.44 26.7456H33C33.0383 28.0544 34.2217 28.9584 35.8762 28.9584Z" fill="white"/>
<path d="M42.9584 28.9584C44.6511 28.9697 45.7885 27.8199 45.7847 26.2879C45.7885 24.8241 44.7315 23.765 43.3566 23.765C42.5141 23.765 41.7711 24.1697 41.3958 24.8355H41.3422C41.346 23.2052 41.9511 22.2142 43.0388 22.2142C43.7128 22.2142 44.1686 22.6 44.3141 23.1939H45.712C45.5434 21.9418 44.5209 21 43.0388 21C41.1545 21 39.9635 22.5508 39.9635 25.1986C39.9596 28.0392 41.4533 28.9508 42.9584 28.9584ZM42.9507 27.8236C42.112 27.8236 41.4992 27.139 41.4954 26.3295C41.503 25.5163 42.1388 24.8355 42.9698 24.8355C43.8009 24.8355 44.4098 25.486 44.406 26.3182C44.4098 27.1655 43.7818 27.8236 42.9507 27.8236Z" fill="white"/>
<path d="M49.9783 29C51.8702 29.0038 53 27.5286 53 24.9868C53 22.46 51.8626 21 49.9783 21C48.0941 21 46.9605 22.4563 46.9566 24.9868C46.9566 27.5248 48.0864 29 49.9783 29ZM49.9783 27.8161C49.0017 27.8161 48.389 26.8477 48.3928 24.9868C48.3966 23.1409 49.0056 22.1688 49.9783 22.1688C50.9549 22.1688 51.5638 23.1409 51.5677 24.9868C51.5677 26.8477 50.9587 27.8161 49.9783 27.8161Z" fill="white"/>
</svg>
