<svg width="86" height="82" viewBox="0 0 86 82" fill="none" xmlns="http://www.w3.org/2000/svg">
<path d="M1.79794 67.1193H2.45419C3.88601 67.1193 4.46129 66.2585 4.90021 65.2869L7.90874 58.2727H6.02521L4.30788 62.5682L2.25391 58.2727H0.344815L3.51527 64.554L3.40874 64.8395C3.22976 65.3551 2.97408 65.6193 2.27095 65.6193H1.79794V67.1193ZM14.6982 58.2727H8.90696V67H10.7521V59.794H14.6982V58.2727ZM23.5128 62.6364C23.5128 59.7812 21.7401 58.1534 19.4261 58.1534C17.0994 58.1534 15.3395 59.7812 15.3395 62.6364C15.3395 65.4787 17.0994 67.1193 19.4261 67.1193C21.7401 67.1193 23.5128 65.4915 23.5128 62.6364ZM21.642 62.6364C21.642 64.4858 20.7642 65.4872 19.4261 65.4872C18.0838 65.4872 17.2102 64.4858 17.2102 62.6364C17.2102 60.7869 18.0838 59.7855 19.4261 59.7855C20.7642 59.7855 21.642 60.7869 21.642 62.6364ZM24.4066 67H24.8839C26.9847 67 27.641 65.7173 27.7773 62.7898L27.9137 59.7514H30.3299V67H32.1239V58.2727H26.2006L26.0558 62.1548C25.9705 64.5881 25.6126 65.4148 24.6538 65.4957L24.4066 65.517V67ZM44.4425 62.6364C44.4425 59.7812 42.6697 58.1534 40.3558 58.1534C38.0291 58.1534 36.2692 59.7812 36.2692 62.6364C36.2692 65.4787 38.0291 67.1193 40.3558 67.1193C42.6697 67.1193 44.4425 65.4915 44.4425 62.6364ZM42.5717 62.6364C42.5717 64.4858 41.6939 65.4872 40.3558 65.4872C39.0135 65.4872 38.1399 64.4858 38.1399 62.6364C38.1399 60.7869 39.0135 59.7855 40.3558 59.7855C41.6939 59.7855 42.5717 60.7869 42.5717 62.6364ZM45.8093 67H49.0735C51.1445 67 52.4315 65.8622 52.4315 64.2131C52.4315 62.5597 51.1445 61.4986 49.0735 61.4986H47.6545V59.794H51.6005V58.2727H45.8093V67ZM47.6545 65.517V62.956H49.0735C50.0621 62.956 50.6033 63.5014 50.6033 64.196C50.6033 64.9119 50.0621 65.517 49.0735 65.517H47.6545ZM56.8004 67.1193C58.7607 67.1193 60.1626 66.0412 60.1584 64.5497C60.1626 63.4631 59.4723 62.6875 58.1896 62.5256V62.4574C59.1655 62.2827 59.8388 61.5923 59.8345 60.6122C59.8388 59.2358 58.6328 58.1534 56.826 58.1534C55.0362 58.1534 53.6896 59.2017 53.6641 60.7102H55.4325C55.4538 60.0455 56.0632 59.6151 56.8175 59.6151C57.5632 59.6151 58.0618 60.0668 58.0575 60.723C58.0618 61.4091 57.478 61.8736 56.6385 61.8736H55.8246V63.2287H56.6385C57.6271 63.2287 58.245 63.723 58.2408 64.4261C58.245 65.1207 57.6484 65.598 56.8047 65.598C55.9908 65.598 55.3814 65.1719 55.3473 64.5327H53.4893C53.5192 66.0582 54.8828 67.1193 56.8004 67.1193ZM69.5558 62.6364C69.5558 59.7812 67.783 58.1534 65.4691 58.1534C63.1424 58.1534 61.3825 59.7812 61.3825 62.6364C61.3825 65.4787 63.1424 67.1193 65.4691 67.1193C67.783 67.1193 69.5558 65.4915 69.5558 62.6364ZM67.685 62.6364C67.685 64.4858 66.8072 65.4872 65.4691 65.4872C64.1268 65.4872 63.2532 64.4858 63.2532 62.6364C63.2532 60.7869 64.1268 59.7855 65.4691 59.7855C66.8072 59.7855 67.685 60.7869 67.685 62.6364ZM70.9226 67H72.7678V64.1705H74.3189C76.326 64.1705 77.4936 62.973 77.4936 61.2301C77.4936 59.4957 76.3473 58.2727 74.3658 58.2727H70.9226V67ZM72.7678 62.6918V59.7812H74.0121C75.0774 59.7812 75.593 60.3608 75.593 61.2301C75.593 62.0952 75.0774 62.6918 74.0206 62.6918H72.7678ZM79.1886 67L79.8363 65.0099H82.9854L83.6332 67H85.6104L82.6019 58.2727H80.2241L77.2113 67H79.1886ZM80.305 63.5696L81.3789 60.267H81.4471L82.521 63.5696H80.305ZM34.1918 71.2727H32.4574L30.2969 72.6406V74.277L32.2955 73.0241H32.3466V80H34.1918V71.2727ZM36.6112 80H38.516L42.1381 72.8026V71.2727H36.0146V72.7812H40.229V72.8409L36.6112 80ZM46.6371 80.1918C48.8317 80.1918 50.157 78.5213 50.1612 75.6449C50.1655 72.7898 48.8232 71.1534 46.6371 71.1534C44.4467 71.1534 43.1172 72.7855 43.1129 75.6449C43.1044 78.5128 44.4382 80.1875 46.6371 80.1918ZM46.6371 78.6619C45.6357 78.6619 44.9879 77.6562 44.9922 75.6449C44.9964 73.6634 45.6399 72.6662 46.6371 72.6662C47.63 72.6662 48.2777 73.6634 48.2777 75.6449C48.282 77.6562 47.6342 78.6619 46.6371 78.6619ZM53.5437 75.7599C55.0224 75.7599 55.93 74.7628 55.93 73.0284C55.93 71.3026 55.0224 70.3352 53.5437 70.3352C52.0565 70.3352 51.1573 71.3111 51.1573 73.0284C51.1573 74.7457 52.0479 75.7599 53.5437 75.7599ZM53.5437 74.6648C52.9002 74.6648 52.4954 74.1364 52.4954 73.0284C52.4954 71.9247 52.9173 71.4006 53.5437 71.4006C54.1829 71.4006 54.5962 71.9247 54.5962 73.0284C54.5962 74.1449 54.1829 74.6648 53.5437 74.6648Z" fill="#444444"/>
<path d="M53.8856 2.74985C53.8856 3.08488 53.9438 3.33818 54.0604 3.50973C54.1791 3.68128 54.3711 3.76706 54.6365 3.76706C54.8998 3.76706 55.0886 3.68229 55.203 3.51276C55.3195 3.3412 55.3778 3.0869 55.3778 2.74985C55.3778 2.41481 55.3195 2.16354 55.203 1.99602C55.0865 1.8285 54.8955 1.74474 54.6301 1.74474C54.3668 1.74474 54.1769 1.8285 54.0604 1.99602C53.9438 2.16152 53.8856 2.4128 53.8856 2.74985ZM56.3877 2.74985C56.3877 3.30084 56.2323 3.73174 55.9216 4.04256C55.6108 4.35337 55.1782 4.50878 54.6236 4.50878C54.2762 4.50878 53.9697 4.43814 53.7043 4.29686C53.4389 4.15356 53.235 3.94871 53.0925 3.68229C52.9501 3.41588 52.8789 3.10506 52.8789 2.74985C52.8789 2.19684 53.0332 1.76695 53.3418 1.46017C53.6504 1.15339 54.0841 1 54.643 1C54.9904 1 55.2969 1.07064 55.5623 1.21192C55.8277 1.3532 56.0316 1.55604 56.1741 1.82043C56.3165 2.08482 56.3877 2.39463 56.3877 2.74985Z" fill="#131313"/>
<path d="M20.5 32.5L43.4421 41.298L65.5 32.5" stroke="#131313" stroke-width="3" stroke-linecap="round" stroke-linejoin="round"/>
<path fill-rule="evenodd" clip-rule="evenodd" d="M27.2969 35.3631L43.7526 42L59.7365 35.552C58.3466 27.8459 51.6055 22 43.4991 22C35.459 22 28.762 27.7506 27.2969 35.3631Z" fill="#131313"/>
<path d="M37.6733 5.11932H36.169L34 6.51278V7.96165L36.0412 6.65767H36.0923V13.8466H37.6733V5.11932Z" fill="black"/>
<path d="M40.2088 13.8466H41.8494L45.5568 6.47017V5.11932H39.6122V6.44034H43.9205V6.5L40.2088 13.8466Z" fill="black"/>
<path d="M49.9705 14.0128C52.0756 14.017 53.3327 12.3551 53.3327 9.49148C53.3327 6.64489 52.0671 5 49.9705 5C47.8739 5 46.6126 6.64062 46.6083 9.49148C46.6083 12.3509 47.8654 14.0128 49.9705 14.0128ZM49.9705 12.679C48.8839 12.679 48.2021 11.5881 48.2063 9.49148C48.2106 7.41193 48.8881 6.31676 49.9705 6.31676C51.0572 6.31676 51.7347 7.41193 51.739 9.49148C51.739 11.5881 51.0614 12.679 49.9705 12.679Z" fill="black"/>
</svg>
