<svg width="95" height="85" viewBox="0 0 95 85" fill="none" xmlns="http://www.w3.org/2000/svg">
<path d="M29.9874 70L30.6351 68.0099H33.7843L34.432 70H36.4093L33.4007 61.2727H31.0229L28.0101 70H29.9874ZM31.1039 66.5696L32.1777 63.267H32.2459L33.3198 66.5696H31.1039ZM37.4597 70H41.1884C43.1486 70 44.1926 68.9773 44.1926 67.5881C44.1926 66.2969 43.2679 65.517 42.275 65.4702V65.3849C43.1827 65.1804 43.8517 64.5369 43.8517 63.5099C43.8517 62.2017 42.8801 61.2727 40.954 61.2727H37.4597V70ZM39.3049 68.4915V66.1733H40.8517C41.7381 66.1733 42.2878 66.6847 42.2878 67.4048C42.2878 68.0611 41.8404 68.4915 40.8091 68.4915H39.3049ZM39.3049 64.9247V62.7642H40.7069C41.525 62.7642 41.9895 63.1861 41.9895 63.8168C41.9895 64.5071 41.427 64.9247 40.6728 64.9247H39.3049ZM45.0609 62.794H47.7328V70H49.5566V62.794H52.2285V61.2727H45.0609V62.794ZM61.0421 65.6364C61.0421 62.7812 59.2694 61.1534 56.9554 61.1534C54.6287 61.1534 52.8688 62.7812 52.8688 65.6364C52.8688 68.4787 54.6287 70.1193 56.9554 70.1193C59.2694 70.1193 61.0421 68.4915 61.0421 65.6364ZM59.1713 65.6364C59.1713 67.4858 58.2935 68.4872 56.9554 68.4872C55.6131 68.4872 54.7395 67.4858 54.7395 65.6364C54.7395 63.7869 55.6131 62.7855 56.9554 62.7855C58.2935 62.7855 59.1713 63.7869 59.1713 65.6364ZM66.4529 64.9162H62.4728V66.3565H66.4529V64.9162ZM8.36896 74.2727H1.19283V83H3.01669V75.7727H6.5451V83H8.36896V74.2727ZM10.1257 83H11.9709V80.1705H13.522C15.5291 80.1705 16.6967 78.973 16.6967 77.2301C16.6967 75.4957 15.5504 74.2727 13.5689 74.2727H10.1257V83ZM11.9709 78.6918V75.7812H13.2152C14.2805 75.7812 14.7962 76.3608 14.7962 77.2301C14.7962 78.0952 14.2805 78.6918 13.2237 78.6918H11.9709ZM17.8995 74.2727V83H19.4933L23.2901 77.5071H23.354V83H25.1992V74.2727H23.5799L19.8129 79.7614H19.7362V74.2727H17.8995ZM32.5107 74.2727H26.7195V83H28.5646V75.794H32.5107V74.2727ZM33.2191 83H33.6964C35.7972 83 36.4535 81.7173 36.5898 78.7898L36.7262 75.7514H39.1424V83H40.9364V74.2727H35.0131L34.8683 78.1548C34.783 80.5881 34.4251 81.4148 33.4663 81.4957L33.2191 81.517V83ZM43.3995 83.1193H44.0558C45.4876 83.1193 46.0629 82.2585 46.5018 81.2869L49.5103 74.2727H47.6268L45.9094 78.5682L43.8555 74.2727H41.9464L45.1168 80.554L45.0103 80.8395C44.8313 81.3551 44.5756 81.6193 43.8725 81.6193H43.3995V83.1193ZM50.858 74.2727V83H61.2301V74.2727H59.4361V81.517H56.9602V74.2727H55.1662V81.517H52.6605V74.2727H50.858ZM63.0945 83H68.9922V81.4787H64.9396V79.3949H68.6726V77.8736H64.9396V75.794H68.9751V74.2727H63.0945V83ZM70.4421 83H72.2873V79.3949H76.033V83H77.8739V74.2727H76.033V77.8736H72.2873V74.2727H70.4421V83ZM79.3995 74.2727V83H80.9933L84.7901 77.5071H84.854V83H86.6992V74.2727H85.0799L81.3129 79.7614H81.2362V74.2727H79.3995ZM88.2195 83H94.1172V81.4787H90.0646V79.3949H93.7976V77.8736H90.0646V75.794H94.1001V74.2727H88.2195V83Z" fill="#444444"/>
<path d="M25.8125 22.2576H23V25.7441H25.8125V22.2576Z" fill="black"/>
<path d="M29.9219 22.2576H27.1094V25.7441H29.9219V22.2576Z" fill="black"/>
<path d="M34.0273 20.782H31.2148V27.2179H34.0273V20.782Z" fill="black"/>
<path d="M38.1367 19.0393H35.3242V28.9618H38.1367V19.0393Z" fill="black"/>
<path d="M42.2441 15.9558H39.4316V32.0461H42.2441V15.9558Z" fill="black"/>
<path d="M46.3516 8.64697H43.5391V39.3529H46.3516V8.64697Z" fill="black"/>
<path d="M50.4609 11.2617H47.6484V36.7383H50.4609V11.2617Z" fill="black"/>
<path d="M54.5684 16.4919H51.7559V31.5098H54.5684V16.4919Z" fill="black"/>
<path d="M58.6758 19.6421H55.8633V28.358H58.6758V19.6421Z" fill="black"/>
<path d="M62.7852 20.9836H59.9727V27.0174H62.7852V20.9836Z" fill="black"/>
<path d="M66.8926 22.2576H64.0801V25.7441H66.8926V22.2576Z" fill="black"/>
<path d="M71 22.2576H68.1875V25.7441H71V22.2576Z" fill="black"/>
</svg>
