<svg width="55" height="82" viewBox="0 0 55 82" fill="none" xmlns="http://www.w3.org/2000/svg">
<path d="M3.33274 67H5.17791V63.3949H8.72763V61.8736H5.17791V59.794H9.11115V58.2727H3.33274V67ZM15.7429 58.2727V63.7827C15.7429 64.7798 15.044 65.5 13.9702 65.5C12.9006 65.5 12.1974 64.7798 12.1974 63.7827V58.2727H10.3523V63.9403C10.3523 65.8494 11.7926 67.1236 13.9702 67.1236C16.1392 67.1236 17.5881 65.8494 17.5881 63.9403V58.2727H15.7429ZM19.1062 67H24.6928V65.4787H20.9513V58.2727H19.1062V67ZM25.9148 67H31.5014V65.4787H27.7599V58.2727H25.9148V67ZM32.7234 67H34.5685V63.3949H38.3143V67H40.1552V58.2727H38.3143V61.8736H34.5685V58.2727H32.7234V67ZM44.7702 67C47.4293 67 49.0401 65.3551 49.0401 62.6278C49.0401 59.9091 47.4293 58.2727 44.7958 58.2727H41.6765V67H44.7702ZM43.5217 65.419V59.8537H44.6978C46.3342 59.8537 47.1992 60.6889 47.1992 62.6278C47.1992 64.5753 46.3342 65.419 44.6935 65.419H43.5217ZM8.61896 74.3281C8.37607 72.3125 6.8505 71.1534 4.83061 71.1534C2.52521 71.1534 0.76527 72.7812 0.76527 75.6364C0.76527 78.483 2.49538 80.1193 4.83061 80.1193C7.06783 80.1193 8.41868 78.6321 8.61896 77.0256L6.75249 77.017C6.57777 77.9503 5.84482 78.4872 4.86044 78.4872C3.53516 78.4872 2.63601 77.5028 2.63601 75.6364C2.63601 73.821 3.52237 72.7855 4.87322 72.7855C5.88317 72.7855 6.61186 73.3693 6.75249 74.3281H8.61896ZM9.60973 72.7131H11.945V80H15.2049C17.2759 80 18.5671 78.8622 18.5629 77.2131C18.5671 75.5597 17.2759 74.4986 15.2049 74.4986H13.7859V71.2727H9.60973V72.7131ZM13.7859 75.956H15.2049C16.1978 75.956 16.739 76.5014 16.7347 77.196C16.739 77.9119 16.1978 78.517 15.2049 78.517H13.7859V75.956ZM19.7976 80H25.6953V78.4787H21.6428V76.3949H25.3757V74.8736H21.6428V72.794H25.6783V71.2727H19.7976V80ZM27.1452 71.2727V80H28.935V74.2983H29.0075L31.266 79.9574H32.4847L34.7433 74.3196H34.8157V80H36.6055V71.2727H34.3299L31.9265 77.1364H31.8242L29.4208 71.2727H27.1452ZM43.4055 80H45.6939L42.1314 75.321L45.5362 71.2727H43.2393L40.3416 74.7585H39.9709V71.2727H38.1257V80H39.9709V76.2798H40.6016L43.4055 80ZM48.1261 80L48.7738 78.0099H51.9229L52.5707 80H54.5479L51.5394 71.2727H49.1616L46.1488 80H48.1261ZM49.2425 76.5696L50.3164 73.267H50.3846L51.4585 76.5696H49.2425Z" fill="#444444"/>
<g clip-path="url(#clip0)">
<path d="M49.0951 4.84351H4.90487C3.8528 4.84351 3 5.69631 3 6.74838V28.0221V29.8999V41.2515C3 42.3035 3.8528 43.1564 4.90487 43.1564H49.0953C50.1472 43.1564 51.0002 42.3036 51.0002 41.2515V29.8999V28.0221V6.74838C51 5.69631 50.147 4.84351 49.0951 4.84351ZM12.3537 30.7515H8.58133V33.2941H11.9613V34.09H8.58133V37.1903H7.75515V29.9558H12.3539V30.7515H12.3537ZM19.4855 34.2137C19.4855 36.0947 18.3486 37.232 16.4571 37.232C14.5554 37.232 13.4084 36.0947 13.4084 34.2137V29.9558H14.2353V34.2137C14.2353 35.6193 15.0823 36.436 16.4571 36.436C17.8318 36.436 18.6587 35.6193 18.6587 34.2137V29.9558H19.4855V34.2137ZM25.5115 37.1903H21.5116V29.9558H22.3384V36.4054H25.5115V37.1903ZM30.8552 37.1903H26.8555V29.9558H27.682V36.4054H30.8552V37.1903ZM38.5033 37.1903H36.6634V34.3794H33.6668V37.1903H31.8268V29.9558H33.6668V32.9324H36.6634V29.9558H38.5033V37.1903ZM42.9896 37.1903H39.9508V33.0228H41.7905V35.7233H43.1034C44.2297 35.7233 45.0362 34.8545 45.0362 33.5836C45.0362 32.3013 44.1885 31.4234 43.0205 31.4234H39.9508V29.9558H43.0618C45.3357 29.9558 46.9063 31.4234 46.9063 33.5729C46.9063 35.7122 45.3147 37.1903 42.9896 37.1903ZM47.1904 26.1172H6.80958V8.65308H47.1904V26.1172Z" fill="#131313"/>
<path d="M11.833 21.2771H14.0121V12.696H10.2539V14.447H11.833V21.2771Z" fill="#131313"/>
<path d="M19.5208 21.3383C21.9444 21.3383 23.3033 19.7832 23.3033 16.9802C23.3033 14.1893 21.9444 12.6345 19.5208 12.6345C17.0725 12.6345 15.7139 14.1893 15.7139 16.9802C15.7139 19.7832 17.0727 21.3383 19.5208 21.3383ZM19.5208 14.2262C20.598 14.2262 21.0753 15.0221 21.0753 16.9802C21.0753 18.9383 20.5978 19.7467 19.5208 19.7467C18.4188 19.7467 17.9539 18.9385 17.9539 16.9802C17.9539 15.0219 18.4188 14.2262 19.5208 14.2262Z" fill="#131313"/>
<path d="M24.2334 18.8902C24.2334 20.4079 25.6043 21.3748 27.7468 21.3748C29.8885 21.3748 31.2597 20.3955 31.2597 18.853C31.2597 17.8986 30.6723 17.0783 29.7296 16.6863C30.4029 16.3191 30.8068 15.6582 30.8068 14.9113C30.8068 13.5037 29.6194 12.6104 27.7342 12.6104C25.8738 12.6104 24.6741 13.4799 24.6741 14.8509C24.6741 15.5971 25.1394 16.2823 25.8614 16.6865C24.8701 17.0783 24.2334 17.9104 24.2334 18.8902ZM27.7468 14.0426C28.5424 14.0426 28.9829 14.3978 28.9829 15.0338C28.9829 15.6462 28.5424 15.9891 27.7468 15.9891C26.9509 15.9891 26.5103 15.6462 26.5103 15.0338C26.5103 14.3978 26.9511 14.0426 27.7468 14.0426ZM27.7468 17.556C28.6889 17.556 29.2154 17.9597 29.2154 18.6699C29.2154 19.4043 28.6889 19.7962 27.7468 19.7962C26.804 19.7962 26.2901 19.3919 26.2901 18.6699C26.2902 17.9597 26.804 17.556 27.7468 17.556Z" fill="#131313"/>
<path d="M35.985 21.3383C38.4085 21.3383 39.7673 19.7832 39.7673 16.9802C39.7673 14.1893 38.4085 12.6345 35.985 12.6345C33.5367 12.6345 32.1777 14.1893 32.1777 16.9802C32.1777 19.7832 33.5367 21.3383 35.985 21.3383ZM35.985 14.2262C37.0622 14.2262 37.5391 15.0221 37.5391 16.9802C37.5391 18.9383 37.062 19.7467 35.985 19.7467C34.8833 19.7467 34.4181 18.9385 34.4181 16.9802C34.4181 15.0219 34.8833 14.2262 35.985 14.2262Z" fill="#131313"/>
<path d="M41.8529 20.0289H42.6574C43.7913 20.0289 44.4439 19.4268 44.4439 18.3878C44.4439 17.4001 43.7915 16.8423 42.6574 16.8423H40.7256V21.2768H41.8527V20.0289H41.8529ZM41.8529 17.7293H42.6005C43.0945 17.7293 43.3797 17.9631 43.3797 18.4267C43.3797 18.895 43.0945 19.1421 42.6005 19.1421H41.8529V17.7293Z" fill="#131313"/>
</g>
<defs>
<clipPath id="clip0">
<rect width="48" height="48" fill="white" transform="translate(3)"/>
</clipPath>
</defs>
</svg>
