<svg width="58" height="85" viewBox="0 0 58 85" fill="none" xmlns="http://www.w3.org/2000/svg">
<path d="M5.84641 63.7827H7.61488C7.58931 62.2273 6.3109 61.1534 4.36772 61.1534C2.45437 61.1534 1.05238 62.2102 1.0609 63.7955C1.05664 65.0824 1.96431 65.8196 3.43874 66.1733L4.38903 66.4119C5.33931 66.642 5.86772 66.9148 5.87198 67.5028C5.86772 68.142 5.26261 68.5767 4.32511 68.5767C3.3663 68.5767 2.67596 68.1335 2.6163 67.2599H0.830788C0.877663 69.1477 2.22852 70.1236 4.34641 70.1236C6.4771 70.1236 7.72994 69.1051 7.7342 67.5071C7.72994 66.054 6.63477 65.2827 5.11772 64.9418L4.33363 64.7543C3.57511 64.5795 2.94016 64.2983 2.95295 63.6719C2.95295 63.1094 3.45153 62.696 4.35494 62.696C5.23704 62.696 5.77823 63.0966 5.84641 63.7827ZM14.3659 61.2727V66.7827C14.3659 67.7798 13.6671 68.5 12.5932 68.5C11.5236 68.5 10.8205 67.7798 10.8205 66.7827V61.2727H8.97532V66.9403C8.97532 68.8494 10.4157 70.1236 12.5932 70.1236C14.7623 70.1236 16.2111 68.8494 16.2111 66.9403V61.2727H14.3659ZM17.7292 70H19.5744V67.1705H21.1255C23.1326 67.1705 24.3002 65.973 24.3002 64.2301C24.3002 62.4957 23.1539 61.2727 21.1724 61.2727H17.7292V70ZM19.5744 65.6918V62.7812H20.8187C21.8841 62.7812 22.3997 63.3608 22.3997 64.2301C22.3997 65.0952 21.8841 65.6918 20.8272 65.6918H19.5744ZM25.4988 70H31.3965V68.4787H27.3439V66.3949H31.0769V64.8736H27.3439V62.794H31.3794V61.2727H25.4988V70ZM32.8464 70H34.6916V66.9062H36.0382L37.6916 70H39.7285L37.8748 66.608C38.8677 66.1818 39.4174 65.3168 39.4174 64.1236C39.4174 62.3892 38.2711 61.2727 36.2896 61.2727H32.8464V70ZM34.6916 65.4233V62.7812H35.9359C37.0012 62.7812 37.5169 63.2543 37.5169 64.1236C37.5169 64.9886 37.0012 65.4233 35.9444 65.4233H34.6916ZM40.7214 70H42.5666V66.3949H46.3123V70H48.1532V61.2727H46.3123V64.8736H42.5666V61.2727H40.7214V70ZM52.7683 70C55.4274 70 57.0382 68.3551 57.0382 65.6278C57.0382 62.9091 55.4274 61.2727 52.7939 61.2727H49.6745V70H52.7683ZM51.5197 68.419V62.8537H52.6958C54.3322 62.8537 55.1973 63.6889 55.1973 65.6278C55.1973 67.5753 54.3322 68.419 52.6916 68.419H51.5197ZM10.119 77.3281C9.87607 75.3125 8.3505 74.1534 6.33061 74.1534C4.02521 74.1534 2.26527 75.7812 2.26527 78.6364C2.26527 81.483 3.99538 83.1193 6.33061 83.1193C8.56783 83.1193 9.91868 81.6321 10.119 80.0256L8.25249 80.017C8.07777 80.9503 7.34482 81.4872 6.36044 81.4872C5.03516 81.4872 4.13601 80.5028 4.13601 78.6364C4.13601 76.821 5.02237 75.7855 6.37322 75.7855C7.38317 75.7855 8.11186 76.3693 8.25249 77.3281H10.119ZM11.1097 75.7131H13.445V83H16.7049C18.7759 83 20.0671 81.8622 20.0629 80.2131C20.0671 78.5597 18.7759 77.4986 16.7049 77.4986H15.2859V74.2727H11.1097V75.7131ZM15.2859 78.956H16.7049C17.6978 78.956 18.239 79.5014 18.2347 80.196C18.239 80.9119 17.6978 81.517 16.7049 81.517H15.2859V78.956ZM21.2976 83H27.1953V81.4787H23.1428V79.3949H26.8757V77.8736H23.1428V75.794H27.1783V74.2727H21.2976V83ZM28.6452 74.2727V83H30.435V77.2983H30.5075L32.766 82.9574H33.9847L36.2433 77.3196H36.3157V83H38.1055V74.2727H35.8299L33.4265 80.1364H33.3242L30.9208 74.2727H28.6452ZM44.9055 83H47.1939L43.6314 78.321L47.0362 74.2727H44.7393L41.8416 77.7585H41.4709V74.2727H39.6257V83H41.4709V79.2798H42.1016L44.9055 83ZM49.6261 83L50.2738 81.0099H53.4229L54.0707 83H56.0479L53.0394 74.2727H50.6616L47.6488 83H49.6261ZM50.7425 79.5696L51.8164 76.267H51.8846L52.9585 79.5696H50.7425Z" fill="#444444"/>
<g clip-path="url(#clip0)">
<path d="M51.0951 5H6.90487C5.8528 5 5 5.8528 5 6.90487V28.1786V30.0564V41.408C5 42.4599 5.8528 43.3129 6.90487 43.3129H51.0953C52.1472 43.3129 53.0002 42.4601 53.0002 41.408V30.0564V28.1786V6.90487C53 5.8528 52.147 5 51.0951 5ZM40.5033 37.3468H38.6634V34.5359H35.6668V37.3468H33.8268V30.1123H35.6668V33.0889H38.6634V30.1123H40.5033V37.3468ZM44.9896 37.3468H41.9508V33.1793H43.7905V35.8798H45.1034C46.2297 35.8798 47.0362 35.011 47.0362 33.7401C47.0362 32.4578 46.1885 31.5799 45.0205 31.5799H41.9508V30.1123H45.0618C47.3357 30.1123 48.9063 31.5799 48.9063 33.7294C48.9063 35.8687 47.3147 37.3468 44.9896 37.3468ZM49.1904 26.2737H8.80958V8.80958H49.1904V26.2737Z" fill="#131313"/>
<path d="M12.15 31.9212H12.6231C12.5865 30.8168 11.8833 30 10.8874 30C9.89924 30 9.13855 30.8061 9.13855 31.978C9.13855 32.9119 9.62477 33.4979 10.4639 33.8352L11.1043 34.0909C11.7683 34.3537 12.2232 34.6911 12.2232 35.4332C12.2232 36.3068 11.6402 36.8928 10.8403 36.8928C10.1188 36.8928 9.55419 36.4205 9.5019 35.5575H9C9.05751 36.7081 9.74763 37.5 10.8403 37.5C12.001 37.5 12.6963 36.6087 12.6963 35.4439C12.6963 34.2365 11.9225 33.7536 11.2429 33.4943L10.6782 33.2741C10.158 33.0753 9.6117 32.7166 9.6117 31.9496C9.6117 31.1683 10.1267 30.5966 10.8743 30.5966C11.5827 30.5966 12.0898 31.1115 12.15 31.9212Z" fill="white"/>
<path d="M17.4409 30.103V34.8722C17.4409 36.0298 16.8344 36.875 15.9012 36.875C14.9679 36.875 14.3615 36.0298 14.3615 34.8722V30.103H13.8726V34.9183C13.87 36.4027 14.6961 37.5 15.9012 37.5C17.1089 37.5 17.9297 36.4027 17.9297 34.9183V30.103H17.4409Z" fill="white"/>
<path d="M19.3505 37.3757H19.8393V34.5952H21.0862C22.2181 34.5952 22.8037 33.6186 22.8037 32.3473C22.8037 31.076 22.2181 30.103 21.0784 30.103H19.3505V37.3757ZM19.8393 33.9986V30.6996H21.0653C21.9123 30.6996 22.3227 31.392 22.3227 32.3473C22.3227 33.299 21.9123 33.9986 21.0731 33.9986H19.8393Z" fill="white"/>
<path d="M23.9512 37.3757H27.1091V36.7791H24.4401V34.0341H26.8921V33.4375H24.4401V30.6996H27.0568V30.103H23.9512V37.3757Z" fill="white"/>
<path d="M28.322 37.3757H28.8108V34.4354H30.0577C30.1283 34.4354 30.1963 34.4318 30.2616 34.4247L31.4354 37.3757H32L30.7635 34.2969C31.4301 33.9986 31.7752 33.2528 31.7752 32.2798C31.7752 31.0085 31.187 30.103 30.0499 30.103H28.322V37.3757ZM28.8108 33.8281V30.6996H30.0368C30.8838 30.6996 31.2942 31.3281 31.2942 32.2798C31.2942 33.2315 30.8838 33.8281 30.0447 33.8281H28.8108Z" fill="white"/>
<path d="M43.8539 20.1855H44.6584C45.7923 20.1855 46.4449 19.5834 46.4449 18.5444C46.4449 17.5566 45.7925 16.9988 44.6584 16.9988H42.7266V21.4333H43.8537V20.1855H43.8539ZM43.8539 17.8859H44.6015C45.0955 17.8859 45.3807 18.1197 45.3807 18.5832C45.3807 19.0515 45.0955 19.2986 44.6015 19.2986H43.8539V17.8859Z" fill="#131313"/>
<path d="M14.8796 12.5454H13.0007L10.6602 14.0273V15.8001L12.8253 14.4428H12.8807V22H14.8796V12.5454Z" fill="black"/>
<path d="M17.1267 22H23.8667V20.3658H19.8966V20.3011L21.2769 18.9485C23.2204 17.1758 23.7421 16.2894 23.7421 15.2138C23.7421 13.5749 22.4033 12.4162 20.3767 12.4162C18.3916 12.4162 17.0297 13.6026 17.0344 15.4584H18.9317C18.9271 14.5536 19.4996 13.9996 20.3628 13.9996C21.1938 13.9996 21.8124 14.5167 21.8124 15.3476C21.8124 16.1001 21.3508 16.6172 20.4921 17.4435L17.1267 20.5596V22Z" fill="black"/>
<path d="M28.736 12.4162C26.6216 12.407 25.1951 13.7919 25.2044 15.6939C25.209 17.4574 26.4324 18.7361 28.1081 18.7361C29.1468 18.7361 30.0701 18.2329 30.4902 17.402H30.5549C30.5502 19.2763 29.8993 20.4165 28.6667 20.4165C27.9419 20.4165 27.4203 20.0195 27.2679 19.3317H25.2967C25.4814 20.9244 26.774 22.1293 28.6667 22.1293C31.0073 22.1293 32.5169 20.2365 32.5123 17.028C32.5076 13.6026 30.6795 12.4254 28.736 12.4162ZM28.7498 13.9858C29.6685 13.9858 30.3471 14.7337 30.3564 15.6339C30.361 16.5387 29.6454 17.2866 28.7314 17.2866C27.8081 17.2866 27.1479 16.5664 27.1433 15.6385C27.1341 14.7152 27.8219 13.9858 28.7498 13.9858Z" fill="black"/>
<path d="M37.5257 22.1293C39.6309 22.1385 41.0666 20.7582 41.062 18.8331C41.0666 17.0604 39.8294 15.7816 38.1536 15.7816C37.1149 15.7816 36.1962 16.2802 35.7715 17.1158H35.7069C35.7161 15.2738 36.3624 14.1289 37.595 14.1289C38.3198 14.1289 38.8414 14.5259 38.9938 15.1861H40.965C40.7757 13.6303 39.4831 12.4162 37.595 12.4162C35.2591 12.4162 33.7587 14.3089 33.7495 17.4851C33.7449 20.9474 35.5822 22.12 37.5257 22.1293ZM37.5165 20.5596C36.5932 20.5596 35.91 19.8164 35.91 18.8931C35.9146 17.9744 36.6117 17.2266 37.5304 17.2266C38.4537 17.2266 39.1277 17.9513 39.123 18.8885C39.1277 19.8349 38.4398 20.5596 37.5165 20.5596Z" fill="black"/>
</g>
<defs>
<clipPath id="clip0">
<rect width="48" height="48" fill="white" transform="translate(5)"/>
</clipPath>
</defs>
</svg>
