<svg width="75" height="83" viewBox="0 0 75 83" fill="none" xmlns="http://www.w3.org/2000/svg">
<path d="M23.3038 59.2727V68H24.8975L28.6944 62.5071H28.7583V68H30.6035V59.2727H28.9842L25.2172 64.7614H25.1404V59.2727H23.3038ZM39.824 62.3281C39.5811 60.3125 38.0556 59.1534 36.0357 59.1534C33.7303 59.1534 31.9703 60.7812 31.9703 63.6364C31.9703 66.483 33.7005 68.1193 36.0357 68.1193C38.2729 68.1193 39.6238 66.6321 39.824 65.0256L37.9576 65.017C37.7828 65.9503 37.0499 66.4872 36.0655 66.4872C34.7402 66.4872 33.8411 65.5028 33.8411 63.6364C33.8411 61.821 34.7275 60.7855 36.0783 60.7855C37.0882 60.7855 37.8169 61.3693 37.9576 62.3281H39.824ZM46.427 68H48.7154L45.1529 63.321L48.5577 59.2727H46.2608L43.3631 62.7585H42.9924V59.2727H41.1472V68H42.9924V64.2798H43.623L46.427 68ZM50.6703 68.1108C51.2157 68.1108 51.6887 67.6548 51.693 67.0881C51.6887 66.5298 51.2157 66.0739 50.6703 66.0739C50.1078 66.0739 49.6433 66.5298 49.6475 67.0881C49.6433 67.6548 50.1078 68.1108 50.6703 68.1108ZM0.997159 72.2727V81H2.59091L6.38778 75.5071H6.4517V81H8.29688V72.2727H6.67756L2.91051 77.7614H2.83381V72.2727H0.997159ZM9.81712 81H11.6623V77.3949H15.408V81H17.2489V72.2727H15.408V75.8736H11.6623V72.2727H9.81712V81ZM18.4379 73.794H21.1097V81H22.9336V73.794H25.6055V72.2727H18.4379V73.794ZM26.7859 81H32.6836V79.4787H28.631V77.3949H32.364V75.8736H28.631V73.794H32.6665V72.2727H26.7859V81ZM33.6605 81H34.1378C36.2386 81 36.8949 79.7173 37.0312 76.7898L37.1676 73.7514H39.5838V81H41.3778V72.2727H35.4545L35.3097 76.1548C35.2244 78.5881 34.8665 79.4148 33.9077 79.4957L33.6605 79.517V81ZM42.4261 81H42.9034C45.0043 81 45.6605 79.7173 45.7969 76.7898L45.9332 73.7514H48.3494V81H50.1435V72.2727H44.2202L44.0753 76.1548C43.9901 78.5881 43.6321 79.4148 42.6733 79.4957L42.4261 79.517V81ZM51.6648 81H57.5625V79.4787H53.5099V77.3949H57.2429V75.8736H53.5099V73.794H57.5455V72.2727H51.6648V81ZM64.2923 81H66.5806L63.0181 76.321L66.4229 72.2727H64.1261L61.2283 75.7585H60.8576V72.2727H59.0124V81H60.8576V77.2798H61.4883L64.2923 81ZM67.1761 73.794H69.848V81H71.6719V73.794H74.3438V72.2727H67.1761V73.794Z" fill="#444444"/>
<path d="M43.781 13.3863L41.5857 14.7235L40.9309 14.136C40.3595 13.6237 39.719 13.2307 39.0286 12.9696L38.219 12.6644V10H35.781V12.6643L34.9714 12.9695C34.281 13.2307 33.6405 13.6237 33.0691 14.1359L32.4143 14.7235L30.219 13.3862L29 15.6136L31.1714 16.9369L31.0191 17.8272C30.8671 18.6975 30.8668 19.301 31.0191 20.1726L31.1714 21.0628L29 22.3861L30.219 24.6135L32.4143 23.2763L33.0691 23.8639C33.6405 24.3774 34.281 24.7692 34.9714 25.0278L35.781 25.3329V28H38.219V25.3357L39.0286 25.0305C39.719 24.7693 40.3595 24.3763 40.9309 23.8641L41.5857 23.2765L43.781 24.6138L45 22.3864L42.8286 21.0631L42.9809 20.1728C43.1329 19.3025 43.1332 18.699 42.9809 17.8274L42.8286 16.9372L45 15.6139L43.781 13.3863ZM37 22.8571C34.9834 22.8571 33.3429 21.1269 33.3429 19C33.3429 16.8731 34.9834 15.1429 37 15.1429C39.0166 15.1429 40.6571 16.8731 40.6571 19C40.6571 21.1269 39.0167 22.8571 37 22.8571Z" fill="black"/>
<path d="M53.267 18.7005C53.107 10.0163 45.9317 3 37.1347 3C28.2383 3 21 10.1761 21 18.9961C21 23.3352 22.8035 27.5013 25.9645 30.5149V45H43.3404V40.0781H53.2694V30.0703H59L53.267 18.7005ZM45.7887 19.687L48.6686 21.3357L44.9452 27.7308L42.0387 26.0653C41.663 26.3225 41.2679 26.5495 40.8581 26.7442V30.0703H33.4113V26.743C33.0017 26.5495 32.6065 26.3224 32.2308 26.0652L29.3243 27.7307L25.6009 21.3356L28.4807 19.687C28.4368 19.2292 28.4343 18.7886 28.4807 18.3051L25.6009 16.6564L29.3243 10.2613L32.2308 11.9268C32.6065 11.6696 33.0016 11.4426 33.4113 11.2479V7.92188H40.8581V11.248C41.2678 11.4427 41.663 11.6698 42.0387 11.9269L44.9452 10.2614L48.6686 16.6565L45.7887 18.3051C45.8327 18.7629 45.8351 19.2035 45.7887 19.687Z" fill="black"/>
<path d="M37 20C37.5523 20 38 19.5523 38 19C38 18.4477 37.5523 18 37 18C36.4477 18 36 18.4477 36 19C36 19.5523 36.4477 20 37 20Z" fill="black"/>
</svg>
