<svg width="145" height="39" viewBox="0 0 145 39" fill="none" xmlns="http://www.w3.org/2000/svg">
<path d="M-6.79189e-08 5.13721H8.2613V16.2245H18.8372V5.13721H27.0985V34.7506H18.8016V23.4862H8.22569V34.7506H-6.79189e-08V5.13721Z" fill="#0A0A0A"/>
<path d="M31.9414 21.75V5.13672H40.3095V21.5728C40.3095 25.859 42.4817 27.8781 45.7933 27.8781C49.105 27.8781 51.2771 25.9298 51.2771 21.7854V5.13672H59.6452V21.5374C59.6452 31.1015 54.1614 35.2814 45.6865 35.2814C37.2472 35.3168 31.9414 31.0307 31.9414 21.75Z" fill="#0A0A0A"/>
<path d="M94.6484 5.13672H102.91V27.5593H117.331V34.7501H94.684V5.13672H94.6484Z" fill="#0A0A0A"/>
<path d="M120.857 5.13672H144.787V12.115H129.012V16.5782H143.291V23.0606H129.012V27.7718H145V34.7501H120.857V5.13672Z" fill="#0A0A0A"/>
<path d="M78.9095 38.9999C78.767 38.9644 78.589 38.929 78.4465 38.8936C74.3159 37.9726 73.3188 37.3704 73.3188 36.0243C73.3188 34.8908 74.2803 34.0407 76.31 34.0407C78.9451 34.0407 81.9362 35.0679 84.6425 36.9453L88.7732 31.136C85.5327 28.5502 81.5801 27.2041 76.5237 27.2041C69.3662 27.2041 64.9863 31.1714 64.9863 36.662C64.9863 37.5121 65.0932 38.2914 65.2712 38.9644H78.9095V38.9999Z" fill="#0A0A0A"/>
<path d="M78.4471 6.4115C74.3164 5.49051 73.3194 4.88833 73.3194 3.54227C73.3194 2.40874 74.2808 1.5586 76.3105 1.5586C78.9456 1.5586 81.9368 2.58586 84.643 4.46326L87.8479 6.75634e-08H65.9839C65.343 1.23979 64.9513 2.69212 64.9513 4.2153C64.9513 10.3788 69.8297 12.1854 76.1681 13.6023C80.1919 14.5233 81.189 15.1963 81.189 16.4361C81.189 17.7822 80.0139 18.5615 77.8061 18.5615C74.352 18.5615 71.076 17.3217 68.1561 15.0192L63.5625 20.4743C67.2302 23.7332 72.2511 25.3626 77.5212 25.3626C84.7499 25.3626 89.5571 21.7849 89.5571 15.7277C89.5571 10.0955 85.3196 7.89926 78.4471 6.4115Z" fill="#0A0A0A"/>
</svg>
