<svg width="76" height="85" viewBox="0 0 76 85" fill="none" xmlns="http://www.w3.org/2000/svg">
<path d="M0.90696 70H6.49361V68.4787H2.75213V61.2727H0.90696V70ZM15.3956 65.6364C15.3956 62.7812 13.6229 61.1534 11.3089 61.1534C8.98224 61.1534 7.2223 62.7812 7.2223 65.6364C7.2223 68.4787 8.98224 70.1193 11.3089 70.1193C13.6229 70.1193 15.3956 68.4915 15.3956 65.6364ZM13.5249 65.6364C13.5249 67.4858 12.647 68.4872 11.3089 68.4872C9.96662 68.4872 9.09304 67.4858 9.09304 65.6364C9.09304 63.7869 9.96662 62.7855 11.3089 62.7855C12.647 62.7855 13.5249 63.7869 13.5249 65.6364ZM18.3988 70H20.1971L21.8548 64.294H21.9229L23.5849 70H25.3832L27.8803 61.2727H25.8647L24.4201 67.3494H24.3434L22.7539 61.2727H21.0281L19.4343 67.3366H19.3619L17.9173 61.2727H15.9016L18.3988 70ZM36.3796 63.7827H38.1481C38.1225 62.2273 36.8441 61.1534 34.9009 61.1534C32.9876 61.1534 31.5856 62.2102 31.5941 63.7955C31.5898 65.0824 32.4975 65.8196 33.9719 66.1733L34.9222 66.4119C35.8725 66.642 36.4009 66.9148 36.4052 67.5028C36.4009 68.142 35.7958 68.5767 34.8583 68.5767C33.8995 68.5767 33.2092 68.1335 33.1495 67.2599H31.364C31.4109 69.1477 32.7617 70.1236 34.8796 70.1236C37.0103 70.1236 38.2631 69.1051 38.2674 67.5071C38.2631 66.054 37.168 65.2827 35.6509 64.9418L34.8668 64.7543C34.1083 64.5795 33.4734 64.2983 33.4862 63.6719C33.4862 63.1094 33.9847 62.696 34.8881 62.696C35.7702 62.696 36.3114 63.0966 36.3796 63.7827ZM41.3537 61.2727H39.5085V70H41.3537V61.2727ZM48.6587 64.0938H50.5337C50.2951 62.3679 48.7738 61.1534 46.8008 61.1534C44.4954 61.1534 42.7184 62.8153 42.7184 65.6449C42.7184 68.4062 44.3803 70.1193 46.8391 70.1193C49.0423 70.1193 50.6147 68.7259 50.6147 66.429V65.3295H46.9627V66.7188H48.8377C48.8121 67.8011 48.0749 68.4872 46.8477 68.4872C45.4627 68.4872 44.5891 67.4517 44.5891 65.6278C44.5891 63.8125 45.4968 62.7855 46.8306 62.7855C47.7809 62.7855 48.4244 63.2756 48.6587 64.0938ZM59.3004 61.2727H57.4638V66.7614H57.3871L53.62 61.2727H52.0007V70H53.8459V64.5071H53.9098L57.7067 70H59.3004V61.2727ZM62.3292 70L62.9769 68.0099H66.1261L66.7738 70H68.7511L65.7425 61.2727H63.3647L60.3519 70H62.3292ZM63.4457 66.5696L64.5195 63.267H64.5877L65.6616 66.5696H63.4457ZM69.8015 70H75.3881V68.4787H71.6467V61.2727H69.8015V70ZM19.0886 83H20.9338V79.3949H24.4835V77.8736H20.9338V75.794H24.867V74.2727H19.0886V83ZM27.9533 74.2727H26.1081V83H27.9533V74.2727ZM29.4714 83H35.0581V81.4787H31.3166V74.2727H29.4714V83ZM34.8578 75.794H37.5297V83H39.3535V75.794H42.0254V74.2727H34.8578V75.794ZM43.2058 83H49.1035V81.4787H45.051V79.3949H48.7839V77.8736H45.051V75.794H49.0865V74.2727H43.2058V83ZM50.5534 83H52.3986V79.9062H53.7452L55.3986 83H57.4355L55.5819 79.608C56.5748 79.1818 57.1245 78.3168 57.1245 77.1236C57.1245 75.3892 55.9782 74.2727 53.9966 74.2727H50.5534V83ZM52.3986 78.4233V75.7812H53.6429C54.7083 75.7812 55.2239 76.2543 55.2239 77.1236C55.2239 77.9886 54.7083 78.4233 53.6515 78.4233H52.3986Z" fill="#444444"/>
<path d="M52.1402 9.86006L49.3201 12.6801C52.2001 15.5801 54.0002 19.5801 54.0002 24.0001C54.0002 32.8402 46.8402 40.0002 38.0001 40.0002C29.16 40.0002 22 32.8402 22 24.0001C22 15.84 28.1001 9.11999 36.0001 8.14002V12.18C30.32 13.14 26 18.06 26 24.0001C26 30.6201 31.3801 36.0001 38.0001 36.0001C44.6201 36.0001 50.0001 30.6201 50.0001 24.0001C50.0001 20.6801 48.6601 17.6801 46.4801 15.5201L43.6601 18.3401C45.1001 19.8 46.0001 21.8001 46.0001 24.0001C46.0001 28.4201 42.42 32.0001 38.0001 32.0001C33.5801 32.0001 30.0001 28.4201 30.0001 24.0001C30.0001 20.28 32.5601 17.18 36.0001 16.28V20.56C34.8001 21.26 34.0001 22.52 34.0001 24C34.0001 26.2 35.8001 28 38.0002 28C40.2002 28 42.0001 26.2001 42.0001 24.0001C42.0001 22.52 41.2001 21.24 40.0001 20.5601V4H38.0002C26.96 4 18 12.96 18 24.0001C18 35.0401 26.96 44.0001 38.0001 44.0001C49.0401 44.0001 58.0001 35.0401 58.0001 24.0001C58.0002 18.48 55.7601 13.48 52.1402 9.86006Z" fill="black"/>
</svg>
