<svg width="55" height="82" viewBox="0 0 55 82" fill="none" xmlns="http://www.w3.org/2000/svg">
<path d="M0.918679 67H2.76385V63.3949H6.50959V67H8.3505V58.2727H6.50959V61.8736H2.76385V58.2727H0.918679V67ZM17.8917 62.6364C17.8917 59.7812 16.119 58.1534 13.805 58.1534C11.4783 58.1534 9.71839 59.7812 9.71839 62.6364C9.71839 65.4787 11.4783 67.1193 13.805 67.1193C16.119 67.1193 17.8917 65.4915 17.8917 62.6364ZM16.021 62.6364C16.021 64.4858 15.1431 65.4872 13.805 65.4872C12.4627 65.4872 11.5891 64.4858 11.5891 62.6364C11.5891 60.7869 12.4627 59.7855 13.805 59.7855C15.1431 59.7855 16.021 60.7869 16.021 62.6364ZM19.6122 58.2727V61.0852C19.608 63.071 20.9673 63.9403 23.0724 63.9403C23.5114 63.9403 24.2784 63.8807 24.8068 63.7741V67H26.6094V58.2727H24.8068V62.3125C24.2827 62.4148 23.5156 62.4659 23.0724 62.4659C21.9134 62.4659 21.4062 62.0952 21.4062 61.0852V58.2727H19.6122ZM28.4343 67H30.2795V63.3949H34.0252V67H35.8661V58.2727H34.0252V61.8736H30.2795V58.2727H28.4343V67ZM45.4073 62.6364C45.4073 59.7812 43.6346 58.1534 41.3207 58.1534C38.994 58.1534 37.234 59.7812 37.234 62.6364C37.234 65.4787 38.994 67.1193 41.3207 67.1193C43.6346 67.1193 45.4073 65.4915 45.4073 62.6364ZM43.5366 62.6364C43.5366 64.4858 42.6587 65.4872 41.3207 65.4872C39.9783 65.4872 39.1048 64.4858 39.1048 62.6364C39.1048 60.7869 39.9783 59.7855 41.3207 59.7855C42.6587 59.7855 43.5366 60.7869 43.5366 62.6364ZM46.7784 58.2727V67H48.3722L52.169 61.5071H52.233V67H54.0781V58.2727H52.4588L48.6918 63.7614H48.6151V58.2727H46.7784ZM51.2656 55.9886C51.2656 56.3892 51.027 56.7514 50.4219 56.7514C49.7997 56.7514 49.5696 56.3807 49.5739 55.9886H48.3168C48.3168 57.0199 49.1307 57.7102 50.4219 57.7102C51.7131 57.7102 52.527 57.0199 52.5312 55.9886H51.2656ZM4.28782 80H6.13299V77.1705H7.68413C9.69123 77.1705 10.8588 75.973 10.8588 74.2301C10.8588 72.4957 9.71254 71.2727 7.731 71.2727H4.28782V80ZM6.13299 75.6918V72.7812H7.37731C8.44265 72.7812 8.95827 73.3608 8.95827 74.2301C8.95827 75.0952 8.44265 75.6918 7.38583 75.6918H6.13299ZM12.0574 80H17.9551V78.4787H13.9025V76.3949H17.6355V74.8736H13.9025V72.794H17.938V71.2727H12.0574V80ZM26.0527 71.2727H24.263V74.8651H23.3382L21.378 71.2727H19.1067L21.7275 75.3977L18.9917 80H21.1777L23.0698 76.5696H24.263V80H26.0527V76.5696H27.2757L29.1209 80H31.324L28.6394 75.3849L31.1962 71.2727H28.9334L27.0243 74.8651H26.0527V71.2727ZM32.4288 71.2727V80H34.0225L37.8194 74.5071H37.8833V80H39.7285V71.2727H38.1092L34.3422 76.7614H34.2654V71.2727H32.4288ZM41.2488 71.2727V80H43.0385V74.2983H43.111L45.3695 79.9574H46.5882L48.8468 74.3196H48.9192V80H50.709V71.2727H48.4334L46.03 77.1364H45.9277L43.5243 71.2727H41.2488Z" fill="#444444"/>
<path fill-rule="evenodd" clip-rule="evenodd" d="M20.075 40.9223C29.5728 43.4672 39.3354 37.8308 41.8803 28.333C44.4253 18.8351 38.7888 9.07256 29.291 6.52762C25.9603 5.63516 22.597 5.74882 19.5238 6.68232C25.0184 10.9434 27.7261 18.2303 25.8136 25.3677C24.1612 31.5348 19.4656 36.0739 13.7755 37.8023C15.5926 39.2115 17.7146 40.2898 20.075 40.9223Z" fill="#131313"/>
</svg>
