<svg width="62" height="86" viewBox="0 0 62 86" fill="none" xmlns="http://www.w3.org/2000/svg">
<path d="M23.6417 65.6364C23.6417 62.7812 21.869 61.1534 19.555 61.1534C17.2283 61.1534 15.4684 62.7812 15.4684 65.6364C15.4684 68.4787 17.2283 70.1193 19.555 70.1193C21.869 70.1193 23.6417 68.4915 23.6417 65.6364ZM21.771 65.6364C21.771 67.4858 20.8931 68.4872 19.555 68.4872C18.2127 68.4872 17.3391 67.4858 17.3391 65.6364C17.3391 63.7869 18.2127 62.7855 19.555 62.7855C20.8931 62.7855 21.771 63.7869 21.771 65.6364ZM25.0085 70H30.5952V68.4787H26.8537V61.2727H25.0085V70ZM31.8171 70H37.7148V68.4787H33.6623V66.3949H37.3952V64.8736H33.6623V62.794H37.6978V61.2727H31.8171V70ZM42.2585 70C44.9176 70 46.5284 68.3551 46.5284 65.6278C46.5284 62.9091 44.9176 61.2727 42.2841 61.2727H39.1648V70H42.2585ZM41.0099 68.419V62.8537H42.1861C43.8224 62.8537 44.6875 63.6889 44.6875 65.6278C44.6875 67.5753 43.8224 68.419 42.1818 68.419H41.0099ZM0.576527 85.1051H2.34925V83H7.61204V85.0966H9.38477V81.5298H8.43022V74.2727H2.65607L2.40891 77.9631C2.25977 80.2472 1.76971 81.0952 1.16886 81.5298H0.576527V85.1051ZM3.29954 81.5298C3.73846 80.8097 4.06658 79.6889 4.18164 77.9631L4.318 75.794H6.65749V81.5298H3.29954ZM10.5108 74.2727V83H12.1046L15.9015 77.5071H15.9654V83H17.8105V74.2727H16.1912L12.4242 79.7614H12.3475V74.2727H10.5108ZM27.0311 77.3281C26.7882 75.3125 25.2626 74.1534 23.2427 74.1534C20.9373 74.1534 19.1774 75.7812 19.1774 78.6364C19.1774 81.483 20.9075 83.1193 23.2427 83.1193C25.4799 83.1193 26.8308 81.6321 27.0311 80.0256L25.1646 80.017C24.9899 80.9503 24.2569 81.4872 23.2725 81.4872C21.9473 81.4872 21.0481 80.5028 21.0481 78.6364C21.0481 76.821 21.9345 75.7855 23.2853 75.7855C24.2953 75.7855 25.024 76.3693 25.1646 77.3281H27.0311ZM35.7733 74.2727H28.5971V83H30.421V75.7727H33.9494V83H35.7733V74.2727ZM37.057 83H37.5343C39.6351 83 40.2914 81.7173 40.4277 78.7898L40.5641 75.7514H42.9803V83H44.7743V74.2727H38.851L38.7061 78.1548C38.6209 80.5881 38.263 81.4148 37.3042 81.4957L37.057 81.517V83ZM46.2956 83H52.1934V81.4787H48.1408V79.3949H51.8738V77.8736H48.1408V75.794H52.1763V74.2727H46.2956V83ZM53.6475 74.2727V83H55.2413L59.0382 77.5071H59.1021V83H60.9473V74.2727H59.3279L55.5609 79.7614H55.4842V74.2727H53.6475ZM58.1348 71.9886C58.1348 72.3892 57.8961 72.7514 57.291 72.7514C56.6689 72.7514 56.4387 72.3807 56.443 71.9886H55.1859C55.1859 73.0199 55.9998 73.7102 57.291 73.7102C58.5822 73.7102 59.3961 73.0199 59.4004 71.9886H58.1348Z" fill="#444444"/>
<path fill-rule="evenodd" clip-rule="evenodd" d="M49 9H13C11.8954 9 11 9.89543 11 11V37C11 38.1046 11.8954 39 13 39H49C50.1046 39 51 38.1046 51 37V11C51 9.89543 50.1046 9 49 9ZM13 5C9.68629 5 7 7.68629 7 11V37C7 40.3137 9.68629 43 13 43H49C52.3137 43 55 40.3137 55 37V11C55 7.68629 52.3137 5 49 5H13Z" fill="#131313"/>
<path d="M11.5 39.5L51 9" stroke="black" stroke-width="4"/>
</svg>
