<svg width="69" height="85" viewBox="0 0 69 85" fill="none" xmlns="http://www.w3.org/2000/svg">
<path d="M11.2878 70H13.133V67.1705H14.6841C16.6912 67.1705 17.8588 65.973 17.8588 64.2301C17.8588 62.4957 16.7125 61.2727 14.731 61.2727H11.2878V70ZM13.133 65.6918V62.7812H14.3773C15.4426 62.7812 15.9583 63.3608 15.9583 64.2301C15.9583 65.0952 15.4426 65.6918 14.3858 65.6918H13.133ZM19.0574 70H24.9551V68.4787H20.9025V66.3949H24.6355V64.8736H20.9025V62.794H24.938V61.2727H19.0574V70ZM33.0527 61.2727H31.263V64.8651H30.3382L28.378 61.2727H26.1067L28.7275 65.3977L25.9917 70H28.1777L30.0698 66.5696H31.263V70H33.0527V66.5696H34.2757L36.1209 70H38.324L35.6394 65.3849L38.1962 61.2727H35.9334L34.0243 64.8651H33.0527V61.2727ZM39.4288 61.2727V70H41.0225L44.8194 64.5071H44.8833V70H46.7285V61.2727H45.1092L41.3422 66.7614H41.2654V61.2727H39.4288ZM48.2488 61.2727V70H50.0385V64.2983H50.111L52.3695 69.9574H53.5882L55.8468 64.3196H55.9192V70H57.709V61.2727H55.4334L53.03 67.1364H52.9277L50.5243 61.2727H48.2488ZM8.39435 74.2727H1.21822V83H3.04208V75.7727H6.57049V83H8.39435V74.2727ZM11.6554 83L12.3031 81.0099H15.4522L16.1 83H18.0772L15.0687 74.2727H12.6909L9.67809 83H11.6554ZM12.7718 79.5696L13.8457 76.267H13.9139L14.9877 79.5696H12.7718ZM19.1277 83H20.9728V80.1705H22.524C24.5311 80.1705 25.6987 78.973 25.6987 77.2301C25.6987 75.4957 24.5524 74.2727 22.5708 74.2727H19.1277V83ZM20.9728 78.6918V75.7812H22.2172C23.2825 75.7812 23.7981 76.3608 23.7981 77.2301C23.7981 78.0952 23.2825 78.6918 22.2257 78.6918H20.9728ZM32.177 83H34.4654L30.9029 78.321L34.3077 74.2727H32.0108L29.1131 77.7585H28.7424V74.2727H26.8972V83H28.7424V79.2798H29.373L32.177 83ZM42.921 78.6364C42.921 75.7812 41.1483 74.1534 38.8343 74.1534C36.5076 74.1534 34.7477 75.7812 34.7477 78.6364C34.7477 81.4787 36.5076 83.1193 38.8343 83.1193C41.1483 83.1193 42.921 81.4915 42.921 78.6364ZM41.0502 78.6364C41.0502 80.4858 40.1724 81.4872 38.8343 81.4872C37.492 81.4872 36.6184 80.4858 36.6184 78.6364C36.6184 76.7869 37.492 75.7855 38.8343 75.7855C40.1724 75.7855 41.0502 76.7869 41.0502 78.6364ZM44.2878 83H48.0165C49.9767 83 51.0208 81.9773 51.0208 80.5881C51.0208 79.2969 50.0961 78.517 49.1032 78.4702V78.3849C50.0108 78.1804 50.6799 77.5369 50.6799 76.5099C50.6799 75.2017 49.7083 74.2727 47.7821 74.2727H44.2878V83ZM46.133 81.4915V79.1733H47.6799C48.5662 79.1733 49.1159 79.6847 49.1159 80.4048C49.1159 81.0611 48.6685 81.4915 47.6373 81.4915H46.133ZM46.133 77.9247V75.7642H47.535C48.3532 75.7642 48.8176 76.1861 48.8176 76.8168C48.8176 77.5071 48.2551 77.9247 47.5009 77.9247H46.133ZM57.5012 83H59.7896L56.2271 78.321L59.6319 74.2727H57.335L54.4373 77.7585H54.0666V74.2727H52.2214V83H54.0666V79.2798H54.6973L57.5012 83ZM60.7218 74.2727V83H62.3155L66.1124 77.5071H66.1763V83H68.0215V74.2727H66.4022L62.6351 79.7614H62.5584V74.2727H60.7218Z" fill="#444444"/>
<path d="M35 3C23.4362 3 14 12.4378 14 24C14 35.5642 23.4378 45 35 45C46.5638 45 56 35.5622 56 24C56 12.4362 46.5622 3 35 3ZM35 42.5391C24.7775 42.5391 16.4609 34.2225 16.4609 24C16.4609 13.7775 24.7775 5.46094 35 5.46094C45.2225 5.46094 53.5391 13.7775 53.5391 24C53.5391 34.2225 45.2225 42.5391 35 42.5391Z" fill="black"/>
<path d="M37.25 10H27.25C26.5596 10 26 10.5697 26 11.2727V36.7273C26 37.4303 26.5596 38 27.25 38H32.25C32.9404 38 33.5 37.4303 33.5 36.7273V27.8182H37.25C42.0749 27.8182 46 23.8217 46 18.9091C46 13.9965 42.0749 10 37.25 10ZM37.25 25.2727H32.25C31.5596 25.2727 31 25.8425 31 26.5455V35.4545H28.5V12.5455H37.25C40.6963 12.5455 43.5 15.4001 43.5 18.9091C43.5 22.418 40.6963 25.2727 37.25 25.2727Z" fill="black"/>
<path d="M37.25 15H32.25C31.5596 15 31 15.5969 31 16.3333V21.6667C31 22.4031 31.5596 23 32.25 23H37.25C39.3177 23 41 21.2056 41 19C41 16.7944 39.3177 15 37.25 15ZM37.25 20.3333H33.5V17.6667H37.25C37.9391 17.6667 38.5 18.2649 38.5 19C38.5 19.7351 37.9391 20.3333 37.25 20.3333Z" fill="black"/>
</svg>
