<svg width="105" height="85" viewBox="0 0 105 85" fill="none" xmlns="http://www.w3.org/2000/svg">
<path d="M27.8395 70.1193C29.7997 70.1193 31.2017 69.0412 31.1974 67.5497C31.2017 66.4631 30.5114 65.6875 29.2287 65.5256V65.4574C30.2045 65.2827 30.8778 64.5923 30.8736 63.6122C30.8778 62.2358 29.6719 61.1534 27.8651 61.1534C26.0753 61.1534 24.7287 62.2017 24.7031 63.7102H26.4716C26.4929 63.0455 27.1023 62.6151 27.8565 62.6151C28.6023 62.6151 29.1009 63.0668 29.0966 63.723C29.1009 64.4091 28.517 64.8736 27.6776 64.8736H26.8636V66.2287H27.6776C28.6662 66.2287 29.2841 66.723 29.2798 67.4261C29.2841 68.1207 28.6875 68.598 27.8438 68.598C27.0298 68.598 26.4205 68.1719 26.3864 67.5327H24.5284C24.5582 69.0582 25.9219 70.1193 27.8395 70.1193ZM34.0792 70L34.7269 68.0099H37.8761L38.5238 70H40.5011L37.4925 61.2727H35.1147L32.1019 70H34.0792ZM35.1957 66.5696L36.2695 63.267H36.3377L37.4116 66.5696H35.1957ZM53.2148 68.5724H52.2731V61.2727H50.479V68.517H48.0032V61.2727H46.2092V68.517H43.7035V61.2727H41.9009V70H51.4208V72.054H53.0955L53.2148 68.5724ZM54.3409 61.2727V70H55.9347L59.7315 64.5071H59.7955V70H61.6406V61.2727H60.0213L56.2543 66.7614H56.1776V61.2727H54.3409ZM62.8285 62.794H65.5004V70H67.3242V62.794H69.9961V61.2727H62.8285V62.794ZM71.6026 70L72.2504 68.0099H75.3995L76.0472 70H78.0245L75.016 61.2727H72.6381L69.6254 70H71.6026ZM72.7191 66.5696L73.793 63.267H73.8612L74.935 66.5696H72.7191ZM9.19443 78.6364C9.19443 75.7812 7.4217 74.1534 5.10778 74.1534C2.78107 74.1534 1.02113 75.7812 1.02113 78.6364C1.02113 81.4787 2.78107 83.1193 5.10778 83.1193C7.4217 83.1193 9.19443 81.4915 9.19443 78.6364ZM7.32369 78.6364C7.32369 80.4858 6.44585 81.4872 5.10778 81.4872C3.76545 81.4872 2.89187 80.4858 2.89187 78.6364C2.89187 76.7869 3.76545 75.7855 5.10778 75.7855C6.44585 75.7855 7.32369 76.7869 7.32369 78.6364ZM9.84215 75.794H12.514V83H14.3379V75.794H17.0098V74.2727H9.84215V75.794ZM28.3865 74.2727H21.2104V83H23.0343V75.7727H26.5627V83H28.3865V74.2727ZM30.1433 83H36.041V81.4787H31.9885V79.3949H35.7214V77.8736H31.9885V75.794H36.024V74.2727H30.1433V83ZM37.4909 83H39.3361V80.1705H40.8873C42.8944 80.1705 44.062 78.973 44.062 77.2301C44.062 75.4957 42.9157 74.2727 40.9341 74.2727H37.4909V83ZM39.3361 78.6918V75.7812H40.5804C41.6458 75.7812 42.1614 76.3608 42.1614 77.2301C42.1614 78.0952 41.6458 78.6918 40.589 78.6918H39.3361ZM45.2605 83H51.1582V81.4787H47.1056V79.3949H50.8386V77.8736H47.1056V75.794H51.1412V74.2727H45.2605V83ZM55.7828 83.1193C57.7431 83.1193 59.1451 82.0412 59.1408 80.5497C59.1451 79.4631 58.4547 78.6875 57.1721 78.5256V78.4574C58.1479 78.2827 58.8212 77.5923 58.8169 76.6122C58.8212 75.2358 57.6152 74.1534 55.8084 74.1534C54.0186 74.1534 52.6721 75.2017 52.6465 76.7102H54.415C54.4363 76.0455 55.0456 75.6151 55.7999 75.6151C56.5456 75.6151 57.0442 76.0668 57.04 76.723C57.0442 77.4091 56.4604 77.8736 55.6209 77.8736H54.807V79.2287H55.6209C56.6096 79.2287 57.2275 79.723 57.2232 80.4261C57.2275 81.1207 56.6309 81.598 55.7871 81.598C54.9732 81.598 54.3638 81.1719 54.3297 80.5327H52.4718C52.5016 82.0582 53.8652 83.1193 55.7828 83.1193ZM62.0225 83L62.6703 81.0099H65.8194L66.4672 83H68.4444L65.4359 74.2727H63.0581L60.0453 83H62.0225ZM63.139 79.5696L64.2129 76.267H64.2811L65.3549 79.5696H63.139ZM76.9139 74.2727H69.7377V83H71.5616V75.7727H75.09V83H76.9139V74.2727ZM78.6749 74.2727V83H80.2686L84.0655 77.5071H84.1294V83H85.9746V74.2727H84.3553L80.5882 79.7614H80.5115V74.2727H78.6749ZM95.1951 77.3281C94.9522 75.3125 93.4267 74.1534 91.4068 74.1534C89.1014 74.1534 87.3414 75.7812 87.3414 78.6364C87.3414 81.483 89.0716 83.1193 91.4068 83.1193C93.644 83.1193 94.9949 81.6321 95.1951 80.0256L93.3287 80.017C93.1539 80.9503 92.421 81.4872 91.4366 81.4872C90.1113 81.4872 89.2122 80.5028 89.2122 78.6364C89.2122 76.821 90.0985 75.7855 91.4494 75.7855C92.4593 75.7855 93.188 76.3693 93.3287 77.3281H95.1951ZM96.5225 74.2727V83H98.1163L101.913 77.5071H101.977V83H103.822V74.2727H102.203L98.4359 79.7614H98.3592V74.2727H96.5225Z" fill="#444444"/>
<path d="M61.625 22.4062V16.625C61.625 10.7664 56.8586 6 51 6C45.1413 6 40.375 10.7664 40.375 16.625V22.4062H36.8594V46H65.1406V22.4062H61.625ZM42.7188 16.625C42.7188 12.0587 46.4337 8.34375 51 8.34375C55.5662 8.34375 59.2812 12.0587 59.2812 16.625V22.4062H56.9375V16.625C56.9375 13.3511 54.2739 10.6875 51 10.6875C47.726 10.6875 45.0625 13.3511 45.0625 16.625V22.4062H42.7188V16.625ZM54.5938 16.625V22.4062H47.4062V16.625C47.4062 14.6434 49.0184 13.0312 51 13.0312C52.9816 13.0312 54.5938 14.6434 54.5938 16.625ZM62.7969 43.6562H39.2031V24.75H62.7969V43.6562Z" fill="#131313"/>
<path d="M51 30.1016C49.7077 30.1016 48.6562 31.153 48.6562 32.4453C48.6562 33.3109 49.1283 34.0679 49.8281 34.4737V38.3047H52.1719V34.4737C52.8717 34.0679 53.3438 33.3109 53.3438 32.4453C53.3438 31.153 52.2923 30.1016 51 30.1016Z" fill="#131313"/>
</svg>
