<svg width="67" height="69" viewBox="0 0 67 69" fill="none" xmlns="http://www.w3.org/2000/svg">
<path d="M6.91655 61.0938H8.79155C8.55291 59.3679 7.03161 58.1534 5.05859 58.1534C2.7532 58.1534 0.976207 59.8153 0.976207 62.6449C0.976207 65.4062 2.63814 67.1193 5.09695 67.1193C7.30007 67.1193 8.87251 65.7259 8.87251 63.429V62.3295H5.22053V63.7188H7.09553C7.06996 64.8011 6.33274 65.4872 5.10547 65.4872C3.72053 65.4872 2.84695 64.4517 2.84695 62.6278C2.84695 60.8125 3.75462 59.7855 5.08842 59.7855C6.03871 59.7855 6.68217 60.2756 6.91655 61.0938ZM14.3026 61.9162H10.3224V63.3565H14.3026V61.9162ZM23.5838 61.3281C23.3409 59.3125 21.8153 58.1534 19.7955 58.1534C17.4901 58.1534 15.7301 59.7812 15.7301 62.6364C15.7301 65.483 17.4602 67.1193 19.7955 67.1193C22.0327 67.1193 23.3835 65.6321 23.5838 64.0256L21.7173 64.017C21.5426 64.9503 20.8097 65.4872 19.8253 65.4872C18.5 65.4872 17.6009 64.5028 17.6009 62.6364C17.6009 60.821 18.4872 59.7855 19.8381 59.7855C20.848 59.7855 21.5767 60.3693 21.7173 61.3281H23.5838ZM24.907 67H30.8047V65.4787H26.7521V63.3949H30.4851V61.8736H26.7521V59.794H30.7876V58.2727H24.907V67ZM32.2546 67H34.0998V63.3949H37.8455V67H39.6864V58.2727H37.8455V61.8736H34.0998V58.2727H32.2546V67ZM48.908 61.3281C48.6651 59.3125 47.1396 58.1534 45.1197 58.1534C42.8143 58.1534 41.0543 59.7812 41.0543 62.6364C41.0543 65.483 42.7844 67.1193 45.1197 67.1193C47.3569 67.1193 48.7077 65.6321 48.908 64.0256L47.0415 64.017C46.8668 64.9503 46.1339 65.4872 45.1495 65.4872C43.8242 65.4872 42.9251 64.5028 42.9251 62.6364C42.9251 60.821 43.8114 59.7855 45.1623 59.7855C46.1722 59.7855 46.9009 60.3693 47.0415 61.3281H48.908ZM58.2511 62.6364C58.2511 59.7812 56.4783 58.1534 54.1644 58.1534C51.8377 58.1534 50.0778 59.7812 50.0778 62.6364C50.0778 65.4787 51.8377 67.1193 54.1644 67.1193C56.4783 67.1193 58.2511 65.4915 58.2511 62.6364ZM56.3803 62.6364C56.3803 64.4858 55.5025 65.4872 54.1644 65.4872C52.8221 65.4872 51.9485 64.4858 51.9485 62.6364C51.9485 60.7869 52.8221 59.7855 54.1644 59.7855C55.5025 59.7855 56.3803 60.7869 56.3803 62.6364ZM59.6179 67H61.4631V64.1705H63.0142C65.0213 64.1705 66.1889 62.973 66.1889 61.2301C66.1889 59.4957 65.0426 58.2727 63.0611 58.2727H59.6179V67ZM61.4631 62.6918V59.7812H62.7074C63.7727 59.7812 64.2884 60.3608 64.2884 61.2301C64.2884 62.0952 63.7727 62.6918 62.7159 62.6918H61.4631Z" fill="#444444"/>
<path d="M15.7861 24.4285C15.7861 14.6058 23.7491 6.64282 33.5718 6.64282C43.3946 6.64282 51.3576 14.6058 51.3576 24.4285V41.0232C51.3576 41.681 50.8243 42.2143 50.1665 42.2143H33.5719C23.7491 42.2143 15.7861 34.2513 15.7861 24.4285Z" fill="#131313" stroke="#131313" stroke-width="3"/>
<path d="M33.4284 22.7751H41.7141V33.1498C40.3713 33.5695 39.1046 33.8615 37.9141 34.0257C36.7332 34.1991 35.5237 34.2858 34.2856 34.2858C31.1332 34.2858 28.7237 33.4007 27.057 31.6305C25.3999 29.8512 24.5713 27.3009 24.5713 23.9795C24.5713 20.7494 25.5332 18.231 27.457 16.4244C29.3903 14.6177 32.0665 13.7144 35.4856 13.7144C37.6284 13.7144 39.6951 14.125 41.6856 14.9462L40.2141 18.3405C38.6903 17.6106 37.1046 17.2456 35.457 17.2456C33.5427 17.2456 32.0094 17.8615 30.857 19.0933C29.7046 20.3251 29.1284 21.9812 29.1284 24.0617C29.1284 26.2333 29.5903 27.894 30.5141 29.0437C31.4475 30.1843 32.7999 30.7546 34.5713 30.7546C35.4951 30.7546 36.4332 30.6633 37.3856 30.4808V26.3063H33.4284V22.7751Z" fill="white"/>
</svg>
