<svg width="48" height="85" viewBox="0 0 48 85" fill="none" xmlns="http://www.w3.org/2000/svg">
<path d="M7.63743 63.7827H9.40589C9.38033 62.2273 8.10192 61.1534 6.15874 61.1534C4.24538 61.1534 2.84339 62.2102 2.85192 63.7955C2.84766 65.0824 3.75533 65.8196 5.22976 66.1733L6.18004 66.4119C7.13033 66.642 7.65874 66.9148 7.663 67.5028C7.65874 68.142 7.05362 68.5767 6.11612 68.5767C5.15732 68.5767 4.46697 68.1335 4.40732 67.2599H2.6218C2.66868 69.1477 4.01953 70.1236 6.13743 70.1236C8.26811 70.1236 9.52095 69.1051 9.52521 67.5071C9.52095 66.054 8.42578 65.2827 6.90874 64.9418L6.12465 64.7543C5.36612 64.5795 4.73118 64.2983 4.74396 63.6719C4.74396 63.1094 5.24254 62.696 6.14595 62.696C7.02805 62.696 7.56925 63.0966 7.63743 63.7827ZM10.7663 61.2727V70H12.5561V64.2983H12.6286L14.8871 69.9574H16.1058L18.3643 64.3196H18.4368V70H20.2266V61.2727H17.951L15.5476 67.1364H15.4453L13.0419 61.2727H10.7663ZM23.2511 70L23.8988 68.0099H27.0479L27.6957 70H29.6729L26.6644 61.2727H24.2866L21.2738 70H23.2511ZM24.3675 66.5696L25.4414 63.267H25.5096L26.5835 66.5696H24.3675ZM30.7234 70H32.5685V66.9062H33.9151L35.5685 70H37.6055L35.7518 66.608C36.7447 66.1818 37.2944 65.3168 37.2944 64.1236C37.2944 62.3892 36.1481 61.2727 34.1665 61.2727H30.7234V70ZM32.5685 65.4233V62.7812H33.8129C34.8782 62.7812 35.3938 63.2543 35.3938 64.1236C35.3938 64.9886 34.8782 65.4233 33.8214 65.4233H32.5685ZM38.266 62.794H40.9379V70H42.7617V62.794H45.4336V61.2727H38.266V62.794ZM0.78782 83H2.63299V80.1705H4.18413C6.19123 80.1705 7.35884 78.973 7.35884 77.2301C7.35884 75.4957 6.21254 74.2727 4.231 74.2727H0.78782V83ZM2.63299 78.6918V75.7812H3.87731C4.94265 75.7812 5.45827 76.3608 5.45827 77.2301C5.45827 78.0952 4.94265 78.6918 3.88583 78.6918H2.63299ZM8.55735 83H14.4551V81.4787H10.4025V79.3949H14.1355V77.8736H10.4025V75.794H14.438V74.2727H8.55735V83ZM22.5527 74.2727H20.763V77.8651H19.8382L17.878 74.2727H15.6067L18.2275 78.3977L15.4917 83H17.6777L19.5698 79.5696H20.763V83H22.5527V79.5696H23.7757L25.6209 83H27.824L25.1394 78.3849L27.6962 74.2727H25.4334L23.5243 77.8651H22.5527V74.2727ZM28.9288 74.2727V83H30.5225L34.3194 77.5071H34.3833V83H36.2285V74.2727H34.6092L30.8422 79.7614H30.7654V74.2727H28.9288ZM37.7488 74.2727V83H39.5385V77.2983H39.611L41.8695 82.9574H43.0882L45.3468 77.3196H45.4192V83H47.209V74.2727H44.9334L42.53 80.1364H42.4277L40.0243 74.2727H37.7488Z" fill="#444444"/>
<path fill-rule="evenodd" clip-rule="evenodd" d="M6 5C2.68629 5 0 7.68629 0 11V37C0 40.3137 2.68629 43 6 43H42C45.3137 43 48 40.3137 48 37V11C48 7.68629 45.3137 5 42 5H6ZM7.2168 21.8891H9.23668C9.21964 20.257 7.91992 19.1533 5.89151 19.1533C3.89719 19.1533 2.46112 20.24 2.4739 21.8635C2.46964 23.1888 3.39862 23.9346 4.90714 24.2797L5.81907 24.4928C6.77788 24.7144 7.20827 24.9743 7.2168 25.4644C7.20827 25.9971 6.70969 26.3678 5.86168 26.3678C4.92844 26.3678 4.31481 25.9331 4.26793 25.0937H2.24805C2.27362 27.1349 3.69265 28.1107 5.88725 28.1107C8.06055 28.1107 9.34748 27.1263 9.356 25.4687C9.34748 24.0752 8.40572 23.2229 6.68413 22.8437L5.93413 22.6732C5.14151 22.5028 4.63867 22.2385 4.65572 21.7187C4.65998 21.2414 5.06907 20.8962 5.88725 20.8962C6.70969 20.8962 7.1614 21.267 7.2168 21.8891ZM10.4213 19.2726V27.9999H12.4753V22.6093H12.5478L14.6444 27.9445H15.9569L18.0534 22.6391H18.1259V27.9999H20.1799V19.2726H17.5676L15.3517 24.676H15.2495L13.0336 19.2726H10.4213ZM23.9586 26.1675L23.3833 27.9999H21.1163L24.0609 19.2726H26.8691L29.8137 27.9999H27.5467L26.9714 26.1675H23.9586ZM25.4288 21.4715L24.4615 24.5653H26.4686L25.497 21.4715H25.4288ZM30.7534 27.9999H32.8627V25.0127H33.9451L35.5389 27.9999H37.84L36.0289 24.676C36.9877 24.2414 37.5417 23.3849 37.5417 22.1789C37.5417 20.3849 36.3187 19.2726 34.3585 19.2726H30.7534V27.9999ZM32.8627 23.3508V20.9729H33.9025C34.8485 20.9729 35.3556 21.3692 35.3556 22.1789C35.3556 22.9885 34.8485 23.3508 33.9025 23.3508H32.8627ZM41.0637 20.9857H38.4132V19.2726H45.7896V20.9857H43.1433V27.9999H41.0637V20.9857Z" fill="#131313"/>
</svg>
