<svg width="48" height="82" viewBox="0 0 48 82" fill="none" xmlns="http://www.w3.org/2000/svg">
<path d="M10.9636 60.7827H12.7321C12.7065 59.2273 11.4281 58.1534 9.48491 58.1534C7.57156 58.1534 6.16957 59.2102 6.17809 60.7955C6.17383 62.0824 7.0815 62.8196 8.55593 63.1733L9.50621 63.4119C10.4565 63.642 10.9849 63.9148 10.9892 64.5028C10.9849 65.142 10.3798 65.5767 9.44229 65.5767C8.48349 65.5767 7.79315 65.1335 7.73349 64.2599H5.94798C5.99485 66.1477 7.3457 67.1236 9.4636 67.1236C11.5943 67.1236 12.8471 66.1051 12.8514 64.5071C12.8471 63.054 11.752 62.2827 10.2349 61.9418L9.45082 61.7543C8.69229 61.5795 8.05735 61.2983 8.07014 60.6719C8.07014 60.1094 8.56871 59.696 9.47212 59.696C10.3542 59.696 10.8954 60.0966 10.9636 60.7827ZM14.0925 67H15.9377V64.1705H17.4888C19.4959 64.1705 20.6635 62.973 20.6635 61.2301C20.6635 59.4957 19.5172 58.2727 17.5357 58.2727H14.0925V67ZM15.9377 62.6918V59.7812H17.182C18.2473 59.7812 18.763 60.3608 18.763 61.2301C18.763 62.0952 18.2473 62.6918 17.1905 62.6918H15.9377ZM21.862 67H27.7598V65.4787H23.7072V63.3949H27.4402V61.8736H23.7072V59.794H27.7427V58.2727H21.862V67ZM29.2097 67H35.1074V65.4787H31.0549V63.3949H34.7878V61.8736H31.0549V59.794H35.0904V58.2727H29.2097V67ZM39.6511 67C42.3102 67 43.921 65.3551 43.921 62.6278C43.921 59.9091 42.3102 58.2727 39.6767 58.2727H36.5574V67H39.6511ZM38.4025 65.419V59.8537H39.5787C41.215 59.8537 42.0801 60.6889 42.0801 62.6278C42.0801 64.5753 41.215 65.419 39.5744 65.419H38.4025ZM19.0506 74.3281C18.8077 72.3125 17.2821 71.1534 15.2623 71.1534C12.9569 71.1534 11.1969 72.7812 11.1969 75.6364C11.1969 78.483 12.927 80.1193 15.2623 80.1193C17.4995 80.1193 18.8503 78.6321 19.0506 77.0256L17.1841 77.017C17.0094 77.9503 16.2765 78.4872 15.2921 78.4872C13.9668 78.4872 13.0676 77.5028 13.0676 75.6364C13.0676 73.821 13.954 72.7855 15.3049 72.7855C16.3148 72.7855 17.0435 73.3693 17.1841 74.3281H19.0506ZM21.714 80L22.3617 78.0099H25.5108L26.1586 80H28.1358L25.1273 71.2727H22.7495L19.7367 80H21.714ZM22.8304 76.5696L23.9043 73.267H23.9725L25.0463 76.5696H22.8304ZM29.1863 71.2727V80H30.976V74.2983H31.0485L33.307 79.9574H34.5257L36.7843 74.3196H36.8567V80H38.6465V71.2727H36.3709L33.9675 77.1364H33.8652L31.4618 71.2727H29.1863Z" fill="#444444"/>
<path d="M22.709 5C17.7344 5.28555 13.0693 7.21864 9.3457 10.5372L15.1044 16.296C17.2716 14.4917 19.9031 13.4014 22.709 13.1451V5Z" fill="black"/>
<path d="M13.2775 18.1207L7.51888 12.3621C4.19746 16.0846 2.26196 20.7501 1.97461 25.7259H10.12C10.3781 22.9194 11.4707 20.2877 13.2775 18.1207Z" fill="black"/>
<path d="M37.8763 25.7259H46.0217C45.7343 20.7501 43.7989 16.0846 40.4774 12.3621L34.7188 18.1207C36.5255 20.2876 37.6182 22.9194 37.8763 25.7259Z" fill="black"/>
<path d="M37.8759 28.3066C37.695 30.2943 37.1278 31.9521 36.4569 33.282C37.1114 34.2912 37.657 35.1442 38.0175 35.7106C38.9991 37.2534 38.7818 39.2337 37.4889 40.5267C37.1749 40.8406 36.8163 41.0936 36.4277 41.2805L37.7689 42.6218C38.0213 42.8742 38.3522 43.0004 38.683 43.0004C39.0139 43.0004 39.3447 42.8742 39.597 42.6218C43.462 38.7572 45.7157 33.7144 46.0241 28.3066H37.8759Z" fill="black"/>
<path d="M10.1229 28.3066H1.97461C2.28304 33.7144 4.53669 38.7572 8.40158 42.6219C8.654 42.8743 8.9848 43.0005 9.3156 43.0005C9.6464 43.0005 9.97729 42.8742 10.2297 42.6219L14.1453 38.706C14.65 38.2012 14.65 37.3827 14.1453 36.8778C13.1234 35.856 10.5496 32.9952 10.1229 28.3066Z" fill="black"/>
<path d="M38.6544 10.5372C34.9307 7.21855 30.2657 5.28555 25.291 5V13.1451C28.0969 13.4014 30.7284 14.4917 32.8956 16.296L38.6544 10.5372Z" fill="black"/>
<path d="M26.8677 24.1702C25.2867 22.5891 22.7141 22.5891 21.133 24.1702C19.552 25.7512 19.552 28.3238 21.133 29.9048C23.1304 31.9022 32.9464 38.1697 34.0592 38.8778C34.5694 39.2025 35.2368 39.1292 35.6646 38.7016C36.0922 38.2739 36.1655 37.6065 35.8408 37.0962C35.1326 35.9835 28.8651 26.1674 26.8677 24.1702Z" fill="black"/>
</svg>
