<svg width="69" height="85" viewBox="0 0 69 85" fill="none" xmlns="http://www.w3.org/2000/svg">
<path d="M21.1374 61.2727V70H22.9272V64.2983H22.9996L25.2582 69.9574H26.4769L28.7354 64.3196H28.8079V70H30.5977V61.2727H28.3221L25.9187 67.1364H25.8164L23.413 61.2727H21.1374ZM40.1378 65.6364C40.1378 62.7812 38.3651 61.1534 36.0511 61.1534C33.7244 61.1534 31.9645 62.7812 31.9645 65.6364C31.9645 68.4787 33.7244 70.1193 36.0511 70.1193C38.3651 70.1193 40.1378 68.4915 40.1378 65.6364ZM38.267 65.6364C38.267 67.4858 37.3892 68.4872 36.0511 68.4872C34.7088 68.4872 33.8352 67.4858 33.8352 65.6364C33.8352 63.7869 34.7088 62.7855 36.0511 62.7855C37.3892 62.7855 38.267 63.7869 38.267 65.6364ZM47.8626 70V61.2727H44.4194C42.4379 61.2727 41.2915 62.3892 41.2915 64.1236C41.2915 65.3168 41.8413 66.1818 42.8342 66.608L40.9805 70H43.0174L44.6708 66.9062H46.0174V70H47.8626ZM46.0174 65.4233H44.7646C43.7077 65.4233 43.1921 64.9886 43.1921 64.1236C43.1921 63.2543 43.7077 62.7812 44.7731 62.7812H46.0174V65.4233ZM8.59357 77.3281C8.35068 75.3125 6.82511 74.1534 4.80522 74.1534C2.49982 74.1534 0.739879 75.7812 0.739879 78.6364C0.739879 81.483 2.46999 83.1193 4.80522 83.1193C7.04244 83.1193 8.39329 81.6321 8.59357 80.0256L6.7271 80.017C6.55238 80.9503 5.81942 81.4872 4.83505 81.4872C3.50977 81.4872 2.61062 80.5028 2.61062 78.6364C2.61062 76.821 3.49698 75.7855 4.84783 75.7855C5.85778 75.7855 6.58647 76.3693 6.7271 77.3281H8.59357ZM15.1966 83H17.4849L13.9224 78.321L17.3272 74.2727H15.0304L12.1326 77.7585H11.7619V74.2727H9.91673V83H11.7619V79.2798H12.3926L15.1966 83ZM25.9405 78.6364C25.9405 75.7812 24.1678 74.1534 21.8539 74.1534C19.5272 74.1534 17.7672 75.7812 17.7672 78.6364C17.7672 81.4787 19.5272 83.1193 21.8539 83.1193C24.1678 83.1193 25.9405 81.4915 25.9405 78.6364ZM24.0698 78.6364C24.0698 80.4858 23.1919 81.4872 21.8539 81.4872C20.5115 81.4872 19.638 80.4858 19.638 78.6364C19.638 76.7869 20.5115 75.7855 21.8539 75.7855C23.1919 75.7855 24.0698 76.7869 24.0698 78.6364ZM27.3074 83H29.1525V80.1705H30.7037C32.7108 80.1705 33.8784 78.973 33.8784 77.2301C33.8784 75.4957 32.7321 74.2727 30.7505 74.2727H27.3074V83ZM29.1525 78.6918V75.7812H30.3968C31.4622 75.7812 31.9778 76.3608 31.9778 77.2301C31.9778 78.0952 31.4622 78.6918 30.4054 78.6918H29.1525ZM43.0968 78.6364C43.0968 75.7812 41.324 74.1534 39.0101 74.1534C36.6834 74.1534 34.9235 75.7812 34.9235 78.6364C34.9235 81.4787 36.6834 83.1193 39.0101 83.1193C41.324 83.1193 43.0968 81.4915 43.0968 78.6364ZM41.226 78.6364C41.226 80.4858 40.3482 81.4872 39.0101 81.4872C37.6678 81.4872 36.7942 80.4858 36.7942 78.6364C36.7942 76.7869 37.6678 75.7855 39.0101 75.7855C40.3482 75.7855 41.226 76.7869 41.226 78.6364ZM52.1639 77.3281C51.921 75.3125 50.3954 74.1534 48.3755 74.1534C46.0701 74.1534 44.3102 75.7812 44.3102 78.6364C44.3102 81.483 46.0403 83.1193 48.3755 83.1193C50.6127 83.1193 51.9636 81.6321 52.1639 80.0256L50.2974 80.017C50.1227 80.9503 49.3897 81.4872 48.4054 81.4872C47.0801 81.4872 46.1809 80.5028 46.1809 78.6364C46.1809 76.821 47.0673 75.7855 48.4181 75.7855C49.4281 75.7855 50.1568 76.3693 50.2974 77.3281H52.1639ZM53.1547 75.794H55.8265V83H57.6504V75.794H60.3223V74.2727H53.1547V75.794ZM63.3777 77.4986V74.2727H61.5368V83H64.7967C66.8677 83 68.1589 81.8622 68.1547 80.2131C68.1589 78.5597 66.8677 77.4986 64.7967 77.4986H63.3777ZM63.3777 78.956H64.7967C65.7896 78.956 66.3308 79.5014 66.3265 80.196C66.3308 80.9119 65.7896 81.517 64.7967 81.517H63.3777V78.956Z" fill="#444444"/>
<path d="M31.709 5C26.7344 5.28555 22.0693 7.21864 18.3457 10.5372L24.1044 16.296C26.2716 14.4917 28.9031 13.4014 31.709 13.1451V5Z" fill="black"/>
<path d="M22.2775 18.1207L16.5189 12.3621C13.1975 16.0846 11.262 20.7501 10.9746 25.7259H19.12C19.3781 22.9194 20.4707 20.2877 22.2775 18.1207Z" fill="black"/>
<path d="M46.8763 25.7259H55.0217C54.7343 20.7501 52.7989 16.0846 49.4774 12.3621L43.7188 18.1207C45.5255 20.2876 46.6182 22.9194 46.8763 25.7259Z" fill="black"/>
<path d="M46.8759 28.3066C46.695 30.2943 46.1278 31.9521 45.4569 33.282C46.1114 34.2912 46.657 35.1442 47.0175 35.7106C47.9991 37.2534 47.7818 39.2337 46.4889 40.5267C46.1749 40.8406 45.8163 41.0936 45.4277 41.2805L46.7689 42.6218C47.0213 42.8742 47.3522 43.0004 47.683 43.0004C48.0139 43.0004 48.3447 42.8742 48.597 42.6218C52.462 38.7572 54.7157 33.7144 55.0241 28.3066H46.8759Z" fill="black"/>
<path d="M19.1229 28.3066H10.9746C11.283 33.7144 13.5367 38.7572 17.4016 42.6219C17.654 42.8743 17.9848 43.0005 18.3156 43.0005C18.6464 43.0005 18.9773 42.8742 19.2297 42.6219L23.1453 38.706C23.65 38.2012 23.65 37.3827 23.1453 36.8778C22.1234 35.856 19.5496 32.9952 19.1229 28.3066Z" fill="black"/>
<path d="M47.6544 10.5372C43.9307 7.21855 39.2657 5.28555 34.291 5V13.1451C37.0969 13.4014 39.7284 14.4917 41.8956 16.296L47.6544 10.5372Z" fill="black"/>
<path d="M35.8677 24.1702C34.2867 22.5891 31.7141 22.5891 30.133 24.1702C28.552 25.7512 28.552 28.3238 30.133 29.9048C32.1304 31.9022 41.9464 38.1697 43.0592 38.8778C43.5694 39.2025 44.2368 39.1292 44.6646 38.7016C45.0922 38.2739 45.1655 37.6065 44.8408 37.0962C44.1326 35.9835 37.8651 26.1674 35.8677 24.1702Z" fill="black"/>
</svg>
