<svg width="93" height="70" viewBox="0 0 93 70" fill="none" xmlns="http://www.w3.org/2000/svg">
<path d="M3.16246 67H4.96076L6.61843 61.294H6.68661L8.34854 67H10.1468L12.644 58.2727H10.6284L9.18377 64.3494H9.10707L7.51758 58.2727H5.79173L4.19798 64.3366H4.12553L2.68093 58.2727H0.665305L3.16246 67ZM15.4767 58.2727H13.6316V67H15.4767V58.2727ZM16.9949 67H18.84V63.3949H22.3897V61.8736H18.84V59.794H22.7733V58.2727H16.9949V67ZM25.8596 58.2727H24.0144V67H25.8596V58.2727ZM34.199 61.9162H30.2189V63.3565H34.199V61.9162ZM38.5574 58.2727V67H40.3471V61.2983H40.4196L42.6781 66.9574H43.8968L46.1554 61.3196H46.2278V67H48.0176V58.2727H45.742L43.3386 64.1364H43.2363L40.8329 58.2727H38.5574ZM57.5577 62.6364C57.5577 59.7812 55.785 58.1534 53.4711 58.1534C51.1444 58.1534 49.3844 59.7812 49.3844 62.6364C49.3844 65.4787 51.1444 67.1193 53.4711 67.1193C55.785 67.1193 57.5577 65.4915 57.5577 62.6364ZM55.687 62.6364C55.687 64.4858 54.8091 65.4872 53.4711 65.4872C52.1287 65.4872 51.2551 64.4858 51.2551 62.6364C51.2551 60.7869 52.1287 59.7855 53.4711 59.7855C54.8091 59.7855 55.687 60.7869 55.687 62.6364ZM58.4515 69.1051H60.2243V67H65.487V69.0966H67.2598V65.5298H66.3052V58.2727H60.5311L60.2839 61.9631C60.1348 64.2472 59.6447 65.0952 59.0439 65.5298H58.4515V69.1051ZM61.1745 65.5298C61.6135 64.8097 61.9416 63.6889 62.0566 61.9631L62.193 59.794H64.5325V65.5298H61.1745ZM69.3233 67.1193H69.9796C71.4114 67.1193 71.9867 66.2585 72.4256 65.2869L75.4341 58.2727H73.5506L71.8333 62.5682L69.7793 58.2727H67.8702L71.0407 64.554L70.9341 64.8395C70.7551 65.3551 70.4995 65.6193 69.7963 65.6193H69.3233V67.1193ZM75.9593 67H76.4366C78.5375 67 79.1937 65.7173 79.3301 62.7898L79.4664 59.7514H81.8826V67H83.6767V58.2727H77.7534L77.6085 62.1548C77.5233 64.5881 77.1653 65.4148 76.2065 65.4957L75.9593 65.517V67ZM87.073 61.4986V58.2727H85.2321V67H88.492C90.563 67 91.8542 65.8622 91.85 64.2131C91.8542 62.5597 90.563 61.4986 88.492 61.4986H87.073ZM87.073 62.956H88.492C89.4849 62.956 90.0261 63.5014 90.0218 64.196C90.0261 64.9119 89.4849 65.517 88.492 65.517H87.073V62.956Z" fill="#444444"/>
<path d="M46.9116 41.9996C48.4787 41.9996 49.7491 40.7292 49.7491 39.1621C49.7491 37.5951 48.4787 36.3247 46.9116 36.3247C45.3446 36.3247 44.0742 37.5951 44.0742 39.1621C44.0742 40.7292 45.3446 41.9996 46.9116 41.9996Z" fill="#131313"/>
<path d="M68.425 15.3491C62.806 9.32006 55.1968 5.99991 46.9993 6C38.8021 6.00009 31.1932 9.32024 25.5743 15.3489L24.3652 16.6462L26.9598 19.0645L28.1689 17.7672C33.1096 12.4663 39.797 9.54688 46.9993 9.54679C54.202 9.5467 60.8896 12.4662 65.8304 17.7672L67.0395 19.0645L69.6341 16.6463L68.425 15.3491Z" fill="#131313"/>
<path d="M62.1781 22.4198C58.0163 18.2351 52.6258 15.9306 46.9994 15.9307C41.3719 15.9308 35.9813 18.2356 31.8207 22.42L30.5703 23.6776L33.0854 26.1783L34.3358 24.9208C37.8257 21.4108 42.323 19.4777 46.9994 19.4776C51.6747 19.4775 56.172 21.4106 59.663 24.9209L60.9136 26.1783L63.4286 23.6773L62.1781 22.4198Z" fill="#131313"/>
<path d="M55.3562 29.4841C53.1194 27.2496 49.9115 25.8618 46.9838 25.8618C46.9834 25.8618 46.9828 25.8618 46.9824 25.8618H46.8592C46.8586 25.8618 46.8584 25.8618 46.8579 25.8618C43.9302 25.8618 40.7218 27.2498 38.4851 29.484L37.2305 30.7373L39.7371 33.2467L40.9917 31.9934C42.5637 30.4232 44.8662 29.4087 46.8581 29.4087C46.8584 29.4087 46.8587 29.4087 46.8589 29.4087H46.9827C46.9831 29.4087 46.9832 29.4087 46.9835 29.4087C48.9751 29.4087 51.2778 30.4233 52.8496 31.9933L54.1042 33.2467L56.6109 30.7373L55.3562 29.4841Z" fill="#131313"/>
</svg>
